<?xml version="1.0" encoding="UTF-8" standalone="no"?>
<!DOCTYPE svg PUBLIC "-//W3C//DTD SVG 1.1//EN"
 "http://www.w3.org/Graphics/SVG/1.1/DTD/svg11.dtd">
<!-- Generated by graphviz version 5.0.0 (20220707.1540)
 -->
<!-- Title: dependencies Pages: 1 -->
<svg width="202pt" height="247pt"
 viewBox="0.00 0.00 202.00 246.80" xmlns="http://www.w3.org/2000/svg" xmlns:xlink="http://www.w3.org/1999/xlink">
<g id="graph0" class="graph" transform="scale(1 1) rotate(0) translate(4 242.8)">
<title>dependencies</title>
<polygon fill="white" stroke="transparent" points="-4,4 -4,-242.8 198,-242.8 198,4 -4,4"/>
<text text-anchor="middle" x="97" y="-8.2" font-family="sans-serif" font-size="14.00">dependencies</text>
<g id="clust1" class="cluster">
<title>cluster_ProblemModule</title>
<polygon fill="none" stroke="black" stroke-dasharray="1,5" points="8,-32.8 8,-230.8 186,-230.8 186,-32.8 8,-32.8"/>
</g>
<g id="clust6" class="cluster">
<title>cluster_ProblemModule_providers</title>
<polygon fill="none" stroke="black" points="16,-40.8 16,-92.8 178,-92.8 178,-40.8 16,-40.8"/>
</g>
<g id="clust4" class="cluster">
<title>cluster_ProblemModule_exports</title>
<polygon fill="none" stroke="black" points="35,-170.8 35,-222.8 159,-222.8 159,-170.8 35,-170.8"/>
</g>
<!-- ProblemService  -->
<g id="node1" class="node">
<title>ProblemService </title>
<polygon fill="#fb8072" stroke="black" points="151.42,-214.8 42.58,-214.8 42.58,-178.8 151.42,-178.8 151.42,-214.8"/>
<text text-anchor="middle" x="97" y="-192.6" font-family="Times,serif" font-size="14.00">ProblemService </text>
</g>
<!-- ProblemModule -->
<g id="node2" class="node">
<title>ProblemModule</title>
<polygon fill="#8dd3c7" stroke="black" points="150.49,-149.8 147.49,-153.8 126.49,-153.8 123.49,-149.8 43.51,-149.8 43.51,-113.8 150.49,-113.8 150.49,-149.8"/>
<text text-anchor="middle" x="97" y="-127.6" font-family="Times,serif" font-size="14.00">ProblemModule</text>
</g>
<!-- ProblemModule&#45;&gt;ProblemService  -->
<g id="edge1" class="edge">
<title>ProblemModule&#45;&gt;ProblemService </title>
<path fill="none" stroke="black" stroke-dasharray="5,2" d="M97,-149.91C97,-149.91 97,-168.79 97,-168.79"/>
<polygon fill="black" stroke="black" points="93.5,-168.79 97,-178.79 100.5,-168.79 93.5,-168.79"/>
</g>
<!-- ProblemService -->
<g id="node3" class="node">
<title>ProblemService</title>
<ellipse fill="#fdb462" stroke="black" cx="97" cy="-66.8" rx="72.94" ry="18"/>
<text text-anchor="middle" x="97" y="-62.6" font-family="Times,serif" font-size="14.00">ProblemService</text>
</g>
<!-- ProblemService&#45;&gt;ProblemModule -->
<g id="edge2" class="edge">
<title>ProblemService&#45;&gt;ProblemModule</title>
<path fill="none" stroke="black" d="M97,-84.91C97,-84.91 97,-103.79 97,-103.79"/>
<polygon fill="black" stroke="black" points="93.5,-103.79 97,-113.79 100.5,-103.79 93.5,-103.79"/>
</g>
</g>
</svg>
