<?xml version="1.0" encoding="UTF-8" standalone="no"?>
<!DOCTYPE svg PUBLIC "-//W3C//DTD SVG 1.1//EN"
 "http://www.w3.org/Graphics/SVG/1.1/DTD/svg11.dtd">
<!-- Generated by graphviz version 5.0.0 (20220707.1540)
 -->
<!-- Title: dependencies Pages: 1 -->
<svg width="1049pt" height="174pt"
 viewBox="0.00 0.00 1049.00 173.80" xmlns="http://www.w3.org/2000/svg" xmlns:xlink="http://www.w3.org/1999/xlink">
<g id="graph0" class="graph" transform="scale(1 1) rotate(0) translate(4 169.8)">
<title>dependencies</title>
<polygon fill="white" stroke="transparent" points="-4,4 -4,-169.8 1045,-169.8 1045,4 -4,4"/>
<text text-anchor="middle" x="520.5" y="-8.2" font-family="sans-serif" font-size="14.00">dependencies</text>
<g id="clust1" class="cluster">
<title>cluster_AuthModule</title>
<polygon fill="none" stroke="black" stroke-dasharray="1,5" points="8,-32.8 8,-157.8 1033,-157.8 1033,-32.8 8,-32.8"/>
</g>
<g id="clust3" class="cluster">
<title>cluster_AuthModule_imports</title>
<polygon fill="none" stroke="black" points="795,-40.8 795,-92.8 1025,-92.8 1025,-40.8 795,-40.8"/>
</g>
<g id="clust6" class="cluster">
<title>cluster_AuthModule_providers</title>
<polygon fill="none" stroke="black" points="16,-40.8 16,-92.8 787,-92.8 787,-40.8 16,-40.8"/>
</g>
<!-- SendgridModule -->
<g id="node1" class="node">
<title>SendgridModule</title>
<polygon fill="#8dd3c7" stroke="black" points="1017.1,-84.8 1014.1,-88.8 993.1,-88.8 990.1,-84.8 906.9,-84.8 906.9,-48.8 1017.1,-48.8 1017.1,-84.8"/>
<text text-anchor="middle" x="962" y="-62.6" font-family="Times,serif" font-size="14.00">SendgridModule</text>
</g>
<!-- AuthModule -->
<g id="node3" class="node">
<title>AuthModule</title>
<polygon fill="#8dd3c7" stroke="black" points="668.55,-149.8 665.55,-153.8 644.55,-153.8 641.55,-149.8 581.45,-149.8 581.45,-113.8 668.55,-113.8 668.55,-149.8"/>
<text text-anchor="middle" x="625" y="-127.6" font-family="Times,serif" font-size="14.00">AuthModule</text>
</g>
<!-- SendgridModule&#45;&gt;AuthModule -->
<g id="edge1" class="edge">
<title>SendgridModule&#45;&gt;AuthModule</title>
<path fill="none" stroke="black" d="M962,-85.08C962,-106.12 962,-137.8 962,-137.8 962,-137.8 678.71,-137.8 678.71,-137.8"/>
<polygon fill="black" stroke="black" points="678.71,-134.3 668.71,-137.8 678.71,-141.3 678.71,-134.3"/>
</g>
<!-- UserModule -->
<g id="node2" class="node">
<title>UserModule</title>
<polygon fill="#8dd3c7" stroke="black" points="888.99,-84.8 885.99,-88.8 864.99,-88.8 861.99,-84.8 803.01,-84.8 803.01,-48.8 888.99,-48.8 888.99,-84.8"/>
<text text-anchor="middle" x="846" y="-62.6" font-family="Times,serif" font-size="14.00">UserModule</text>
</g>
<!-- UserModule&#45;&gt;AuthModule -->
<g id="edge2" class="edge">
<title>UserModule&#45;&gt;AuthModule</title>
<path fill="none" stroke="black" d="M846,-84.82C846,-102.17 846,-125.8 846,-125.8 846,-125.8 678.66,-125.8 678.66,-125.8"/>
<polygon fill="black" stroke="black" points="678.66,-122.3 668.66,-125.8 678.66,-129.3 678.66,-122.3"/>
</g>
<!-- AuthService -->
<g id="node4" class="node">
<title>AuthService</title>
<ellipse fill="#fdb462" stroke="black" cx="720" cy="-66.8" rx="59.11" ry="18"/>
<text text-anchor="middle" x="720" y="-62.6" font-family="Times,serif" font-size="14.00">AuthService</text>
</g>
<!-- AuthService&#45;&gt;AuthModule -->
<g id="edge3" class="edge">
<title>AuthService&#45;&gt;AuthModule</title>
<path fill="none" stroke="black" d="M664.73,-73.76C664.73,-73.76 664.73,-103.61 664.73,-103.61"/>
<polygon fill="black" stroke="black" points="661.23,-103.61 664.73,-113.61 668.23,-103.61 661.23,-103.61"/>
</g>
<!-- JwtStrategyRefreshToken -->
<g id="node5" class="node">
<title>JwtStrategyRefreshToken</title>
<ellipse fill="#fdb462" stroke="black" cx="531" cy="-66.8" rx="111.17" ry="18"/>
<text text-anchor="middle" x="531" y="-62.6" font-family="Times,serif" font-size="14.00">JwtStrategyRefreshToken</text>
</g>
<!-- JwtStrategyRefreshToken&#45;&gt;AuthModule -->
<g id="edge4" class="edge">
<title>JwtStrategyRefreshToken&#45;&gt;AuthModule</title>
<path fill="none" stroke="black" d="M611.78,-79.33C611.78,-79.33 611.78,-103.65 611.78,-103.65"/>
<polygon fill="black" stroke="black" points="608.28,-103.65 611.78,-113.65 615.28,-103.65 608.28,-103.65"/>
</g>
<!-- JwtStrategyResetPassword -->
<g id="node6" class="node">
<title>JwtStrategyResetPassword</title>
<ellipse fill="#fdb462" stroke="black" cx="287" cy="-66.8" rx="115.22" ry="18"/>
<text text-anchor="middle" x="287" y="-62.6" font-family="Times,serif" font-size="14.00">JwtStrategyResetPassword</text>
</g>
<!-- JwtStrategyResetPassword&#45;&gt;AuthModule -->
<g id="edge5" class="edge">
<title>JwtStrategyResetPassword&#45;&gt;AuthModule</title>
<path fill="none" stroke="black" d="M287,-84.82C287,-102.17 287,-125.8 287,-125.8 287,-125.8 571.16,-125.8 571.16,-125.8"/>
<polygon fill="black" stroke="black" points="571.16,-129.3 581.16,-125.8 571.16,-122.3 571.16,-129.3"/>
</g>
<!-- LocalStrategy -->
<g id="node7" class="node">
<title>LocalStrategy</title>
<ellipse fill="#fdb462" stroke="black" cx="89" cy="-66.8" rx="65.4" ry="18"/>
<text text-anchor="middle" x="89" y="-62.6" font-family="Times,serif" font-size="14.00">LocalStrategy</text>
</g>
<!-- LocalStrategy&#45;&gt;AuthModule -->
<g id="edge6" class="edge">
<title>LocalStrategy&#45;&gt;AuthModule</title>
<path fill="none" stroke="black" d="M89,-85.08C89,-106.12 89,-137.8 89,-137.8 89,-137.8 571.14,-137.8 571.14,-137.8"/>
<polygon fill="black" stroke="black" points="571.14,-141.3 581.14,-137.8 571.14,-134.3 571.14,-141.3"/>
</g>
</g>
</svg>
