<?xml version="1.0" encoding="UTF-8" standalone="no"?>
<!DOCTYPE svg PUBLIC "-//W3C//DTD SVG 1.1//EN"
 "http://www.w3.org/Graphics/SVG/1.1/DTD/svg11.dtd">
<!-- Generated by graphviz version 5.0.0 (20220707.1540)
 -->
<!-- Title: dependencies Pages: 1 -->
<svg width="1180pt" height="174pt"
 viewBox="0.00 0.00 1180.00 173.80" xmlns="http://www.w3.org/2000/svg" xmlns:xlink="http://www.w3.org/1999/xlink">
<g id="graph0" class="graph" transform="scale(1 1) rotate(0) translate(4 169.8)">
<title>dependencies</title>
<polygon fill="white" stroke="transparent" points="-4,4 -4,-169.8 1176,-169.8 1176,4 -4,4"/>
<text text-anchor="middle" x="586" y="-8.2" font-family="sans-serif" font-size="14.00">dependencies</text>
<g id="clust1" class="cluster">
<title>cluster_AuthModule</title>
<polygon fill="none" stroke="black" stroke-dasharray="1,5" points="8,-32.8 8,-157.8 1164,-157.8 1164,-32.8 8,-32.8"/>
</g>
<g id="clust6" class="cluster">
<title>cluster_AuthModule_providers</title>
<polygon fill="none" stroke="black" points="254,-40.8 254,-92.8 1156,-92.8 1156,-40.8 254,-40.8"/>
</g>
<g id="clust3" class="cluster">
<title>cluster_AuthModule_imports</title>
<polygon fill="none" stroke="black" points="16,-40.8 16,-92.8 246,-92.8 246,-40.8 16,-40.8"/>
</g>
<!-- SendgridModule -->
<g id="node1" class="node">
<title>SendgridModule</title>
<polygon fill="#8dd3c7" stroke="black" points="238.1,-84.8 235.1,-88.8 214.1,-88.8 211.1,-84.8 127.9,-84.8 127.9,-48.8 238.1,-48.8 238.1,-84.8"/>
<text text-anchor="middle" x="183" y="-62.6" font-family="Times,serif" font-size="14.00">SendgridModule</text>
</g>
<!-- AuthModule -->
<g id="node3" class="node">
<title>AuthModule</title>
<polygon fill="#8dd3c7" stroke="black" points="568.55,-149.8 565.55,-153.8 544.55,-153.8 541.55,-149.8 481.45,-149.8 481.45,-113.8 568.55,-113.8 568.55,-149.8"/>
<text text-anchor="middle" x="525" y="-127.6" font-family="Times,serif" font-size="14.00">AuthModule</text>
</g>
<!-- SendgridModule&#45;&gt;AuthModule -->
<g id="edge1" class="edge">
<title>SendgridModule&#45;&gt;AuthModule</title>
<path fill="none" stroke="black" d="M183,-84.91C183,-104.14 183,-131.8 183,-131.8 183,-131.8 471.34,-131.8 471.34,-131.8"/>
<polygon fill="black" stroke="black" points="471.34,-135.3 481.34,-131.8 471.34,-128.3 471.34,-135.3"/>
</g>
<!-- UserModule -->
<g id="node2" class="node">
<title>UserModule</title>
<polygon fill="#8dd3c7" stroke="black" points="109.99,-84.8 106.99,-88.8 85.99,-88.8 82.99,-84.8 24.01,-84.8 24.01,-48.8 109.99,-48.8 109.99,-84.8"/>
<text text-anchor="middle" x="67" y="-62.6" font-family="Times,serif" font-size="14.00">UserModule</text>
</g>
<!-- UserModule&#45;&gt;AuthModule -->
<g id="edge2" class="edge">
<title>UserModule&#45;&gt;AuthModule</title>
<path fill="none" stroke="black" d="M67,-85.09C67,-107.01 67,-140.8 67,-140.8 67,-140.8 471.09,-140.8 471.09,-140.8"/>
<polygon fill="black" stroke="black" points="471.09,-144.3 481.09,-140.8 471.08,-137.3 471.09,-144.3"/>
</g>
<!-- AuthService -->
<g id="node4" class="node">
<title>AuthService</title>
<ellipse fill="#fdb462" stroke="black" cx="1089" cy="-66.8" rx="59.11" ry="18"/>
<text text-anchor="middle" x="1089" y="-62.6" font-family="Times,serif" font-size="14.00">AuthService</text>
</g>
<!-- AuthService&#45;&gt;AuthModule -->
<g id="edge3" class="edge">
<title>AuthService&#45;&gt;AuthModule</title>
<path fill="none" stroke="black" d="M1089,-85.09C1089,-107.01 1089,-140.8 1089,-140.8 1089,-140.8 578.79,-140.8 578.79,-140.8"/>
<polygon fill="black" stroke="black" points="578.79,-137.3 568.79,-140.8 578.79,-144.3 578.79,-137.3"/>
</g>
<!-- JwtStrategy -->
<g id="node5" class="node">
<title>JwtStrategy</title>
<ellipse fill="#fdb462" stroke="black" cx="955" cy="-66.8" rx="56.77" ry="18"/>
<text text-anchor="middle" x="955" y="-62.6" font-family="Times,serif" font-size="14.00">JwtStrategy</text>
</g>
<!-- JwtStrategy&#45;&gt;AuthModule -->
<g id="edge4" class="edge">
<title>JwtStrategy&#45;&gt;AuthModule</title>
<path fill="none" stroke="black" d="M955,-84.91C955,-104.14 955,-131.8 955,-131.8 955,-131.8 578.6,-131.8 578.6,-131.8"/>
<polygon fill="black" stroke="black" points="578.6,-128.3 568.6,-131.8 578.6,-135.3 578.6,-128.3"/>
</g>
<!-- JwtStrategyRefreshToken -->
<g id="node6" class="node">
<title>JwtStrategyRefreshToken</title>
<ellipse fill="#fdb462" stroke="black" cx="769" cy="-66.8" rx="111.17" ry="18"/>
<text text-anchor="middle" x="769" y="-62.6" font-family="Times,serif" font-size="14.00">JwtStrategyRefreshToken</text>
</g>
<!-- JwtStrategyRefreshToken&#45;&gt;AuthModule -->
<g id="edge5" class="edge">
<title>JwtStrategyRefreshToken&#45;&gt;AuthModule</title>
<path fill="none" stroke="black" d="M769,-84.83C769,-101.2 769,-122.8 769,-122.8 769,-122.8 578.62,-122.8 578.62,-122.8"/>
<polygon fill="black" stroke="black" points="578.62,-119.3 568.62,-122.8 578.62,-126.3 578.62,-119.3"/>
</g>
<!-- JwtStrategyResetPassword -->
<g id="node7" class="node">
<title>JwtStrategyResetPassword</title>
<ellipse fill="#fdb462" stroke="black" cx="525" cy="-66.8" rx="115.22" ry="18"/>
<text text-anchor="middle" x="525" y="-62.6" font-family="Times,serif" font-size="14.00">JwtStrategyResetPassword</text>
</g>
<!-- JwtStrategyResetPassword&#45;&gt;AuthModule -->
<g id="edge6" class="edge">
<title>JwtStrategyResetPassword&#45;&gt;AuthModule</title>
<path fill="none" stroke="black" d="M525,-84.91C525,-84.91 525,-103.79 525,-103.79"/>
<polygon fill="black" stroke="black" points="521.5,-103.79 525,-113.79 528.5,-103.79 521.5,-103.79"/>
</g>
<!-- LocalStrategy -->
<g id="node8" class="node">
<title>LocalStrategy</title>
<ellipse fill="#fdb462" stroke="black" cx="327" cy="-66.8" rx="65.4" ry="18"/>
<text text-anchor="middle" x="327" y="-62.6" font-family="Times,serif" font-size="14.00">LocalStrategy</text>
</g>
<!-- LocalStrategy&#45;&gt;AuthModule -->
<g id="edge7" class="edge">
<title>LocalStrategy&#45;&gt;AuthModule</title>
<path fill="none" stroke="black" d="M327,-84.83C327,-101.2 327,-122.8 327,-122.8 327,-122.8 471.06,-122.8 471.06,-122.8"/>
<polygon fill="black" stroke="black" points="471.06,-126.3 481.06,-122.8 471.06,-119.3 471.06,-126.3"/>
</g>
</g>
</svg>
