<?xml version="1.0" encoding="UTF-8" standalone="no"?>
<!DOCTYPE svg PUBLIC "-//W3C//DTD SVG 1.1//EN"
 "http://www.w3.org/Graphics/SVG/1.1/DTD/svg11.dtd">
<!-- Generated by graphviz version 5.0.0 (20220707.1540)
 -->
<!-- Title: dependencies Pages: 1 -->
<svg width="1180pt" height="174pt"
 viewBox="0.00 0.00 1180.00 173.80" xmlns="http://www.w3.org/2000/svg" xmlns:xlink="http://www.w3.org/1999/xlink">
<g id="graph0" class="graph" transform="scale(1 1) rotate(0) translate(4 169.8)">
<title>dependencies</title>
<polygon fill="white" stroke="transparent" points="-4,4 -4,-169.8 1176,-169.8 1176,4 -4,4"/>
<text text-anchor="middle" x="586" y="-8.2" font-family="sans-serif" font-size="14.00">dependencies</text>
<g id="clust1" class="cluster">
<title>cluster_AuthModule</title>
<polygon fill="none" stroke="black" stroke-dasharray="1,5" points="8,-32.8 8,-157.8 1164,-157.8 1164,-32.8 8,-32.8"/>
</g>
<g id="clust3" class="cluster">
<title>cluster_AuthModule_imports</title>
<polygon fill="none" stroke="black" points="926,-40.8 926,-92.8 1156,-92.8 1156,-40.8 926,-40.8"/>
</g>
<g id="clust6" class="cluster">
<title>cluster_AuthModule_providers</title>
<polygon fill="none" stroke="black" points="16,-40.8 16,-92.8 918,-92.8 918,-40.8 16,-40.8"/>
</g>
<!-- SendgridModule -->
<g id="node1" class="node">
<title>SendgridModule</title>
<polygon fill="#8dd3c7" stroke="black" points="1148.1,-84.8 1145.1,-88.8 1124.1,-88.8 1121.1,-84.8 1037.9,-84.8 1037.9,-48.8 1148.1,-48.8 1148.1,-84.8"/>
<text text-anchor="middle" x="1093" y="-62.6" font-family="Times,serif" font-size="14.00">SendgridModule</text>
</g>
<!-- AuthModule -->
<g id="node3" class="node">
<title>AuthModule</title>
<polygon fill="#8dd3c7" stroke="black" points="760.55,-149.8 757.55,-153.8 736.55,-153.8 733.55,-149.8 673.45,-149.8 673.45,-113.8 760.55,-113.8 760.55,-149.8"/>
<text text-anchor="middle" x="717" y="-127.6" font-family="Times,serif" font-size="14.00">AuthModule</text>
</g>
<!-- SendgridModule&#45;&gt;AuthModule -->
<g id="edge1" class="edge">
<title>SendgridModule&#45;&gt;AuthModule</title>
<path fill="none" stroke="black" d="M1093,-85.09C1093,-107.01 1093,-140.8 1093,-140.8 1093,-140.8 770.87,-140.8 770.87,-140.8"/>
<polygon fill="black" stroke="black" points="770.87,-137.3 760.87,-140.8 770.87,-144.3 770.87,-137.3"/>
</g>
<!-- UserModule -->
<g id="node2" class="node">
<title>UserModule</title>
<polygon fill="#8dd3c7" stroke="black" points="1019.99,-84.8 1016.99,-88.8 995.99,-88.8 992.99,-84.8 934.01,-84.8 934.01,-48.8 1019.99,-48.8 1019.99,-84.8"/>
<text text-anchor="middle" x="977" y="-62.6" font-family="Times,serif" font-size="14.00">UserModule</text>
</g>
<!-- UserModule&#45;&gt;AuthModule -->
<g id="edge2" class="edge">
<title>UserModule&#45;&gt;AuthModule</title>
<path fill="none" stroke="black" d="M977,-84.91C977,-104.14 977,-131.8 977,-131.8 977,-131.8 770.81,-131.8 770.81,-131.8"/>
<polygon fill="black" stroke="black" points="770.81,-128.3 760.81,-131.8 770.81,-135.3 770.81,-128.3"/>
</g>
<!-- AuthService -->
<g id="node4" class="node">
<title>AuthService</title>
<ellipse fill="#fdb462" stroke="black" cx="851" cy="-66.8" rx="59.11" ry="18"/>
<text text-anchor="middle" x="851" y="-62.6" font-family="Times,serif" font-size="14.00">AuthService</text>
</g>
<!-- AuthService&#45;&gt;AuthModule -->
<g id="edge3" class="edge">
<title>AuthService&#45;&gt;AuthModule</title>
<path fill="none" stroke="black" d="M851,-84.83C851,-101.2 851,-122.8 851,-122.8 851,-122.8 770.88,-122.8 770.88,-122.8"/>
<polygon fill="black" stroke="black" points="770.88,-119.3 760.88,-122.8 770.88,-126.3 770.88,-119.3"/>
</g>
<!-- JwtStrategy -->
<g id="node5" class="node">
<title>JwtStrategy</title>
<ellipse fill="#fdb462" stroke="black" cx="717" cy="-66.8" rx="56.77" ry="18"/>
<text text-anchor="middle" x="717" y="-62.6" font-family="Times,serif" font-size="14.00">JwtStrategy</text>
</g>
<!-- JwtStrategy&#45;&gt;AuthModule -->
<g id="edge4" class="edge">
<title>JwtStrategy&#45;&gt;AuthModule</title>
<path fill="none" stroke="black" d="M717,-84.91C717,-84.91 717,-103.79 717,-103.79"/>
<polygon fill="black" stroke="black" points="713.5,-103.79 717,-113.79 720.5,-103.79 713.5,-103.79"/>
</g>
<!-- JwtStrategyRefreshToken -->
<g id="node6" class="node">
<title>JwtStrategyRefreshToken</title>
<ellipse fill="#fdb462" stroke="black" cx="531" cy="-66.8" rx="111.17" ry="18"/>
<text text-anchor="middle" x="531" y="-62.6" font-family="Times,serif" font-size="14.00">JwtStrategyRefreshToken</text>
</g>
<!-- JwtStrategyRefreshToken&#45;&gt;AuthModule -->
<g id="edge5" class="edge">
<title>JwtStrategyRefreshToken&#45;&gt;AuthModule</title>
<path fill="none" stroke="black" d="M531,-84.83C531,-101.2 531,-122.8 531,-122.8 531,-122.8 663.39,-122.8 663.39,-122.8"/>
<polygon fill="black" stroke="black" points="663.39,-126.3 673.39,-122.8 663.39,-119.3 663.39,-126.3"/>
</g>
<!-- JwtStrategyResetPassword -->
<g id="node7" class="node">
<title>JwtStrategyResetPassword</title>
<ellipse fill="#fdb462" stroke="black" cx="287" cy="-66.8" rx="115.22" ry="18"/>
<text text-anchor="middle" x="287" y="-62.6" font-family="Times,serif" font-size="14.00">JwtStrategyResetPassword</text>
</g>
<!-- JwtStrategyResetPassword&#45;&gt;AuthModule -->
<g id="edge6" class="edge">
<title>JwtStrategyResetPassword&#45;&gt;AuthModule</title>
<path fill="none" stroke="black" d="M287,-84.91C287,-104.14 287,-131.8 287,-131.8 287,-131.8 663.4,-131.8 663.4,-131.8"/>
<polygon fill="black" stroke="black" points="663.4,-135.3 673.4,-131.8 663.4,-128.3 663.4,-135.3"/>
</g>
<!-- LocalStrategy -->
<g id="node8" class="node">
<title>LocalStrategy</title>
<ellipse fill="#fdb462" stroke="black" cx="89" cy="-66.8" rx="65.4" ry="18"/>
<text text-anchor="middle" x="89" y="-62.6" font-family="Times,serif" font-size="14.00">LocalStrategy</text>
</g>
<!-- LocalStrategy&#45;&gt;AuthModule -->
<g id="edge7" class="edge">
<title>LocalStrategy&#45;&gt;AuthModule</title>
<path fill="none" stroke="black" d="M89,-85.09C89,-107.01 89,-140.8 89,-140.8 89,-140.8 663.34,-140.8 663.34,-140.8"/>
<polygon fill="black" stroke="black" points="663.34,-144.3 673.34,-140.8 663.34,-137.3 663.34,-144.3"/>
</g>
</g>
</svg>
