<?xml version="1.0" encoding="UTF-8" standalone="no"?>
<!DOCTYPE svg PUBLIC "-//W3C//DTD SVG 1.1//EN"
 "http://www.w3.org/Graphics/SVG/1.1/DTD/svg11.dtd">
<!-- Generated by graphviz version 5.0.0 (20220707.1540)
 -->
<!-- Title: dependencies Pages: 1 -->
<svg width="589pt" height="247pt"
 viewBox="0.00 0.00 589.00 246.80" xmlns="http://www.w3.org/2000/svg" xmlns:xlink="http://www.w3.org/1999/xlink">
<g id="graph0" class="graph" transform="scale(1 1) rotate(0) translate(4 242.8)">
<title>dependencies</title>
<polygon fill="white" stroke="transparent" points="-4,4 -4,-242.8 585,-242.8 585,4 -4,4"/>
<text text-anchor="middle" x="290.5" y="-8.2" font-family="sans-serif" font-size="14.00">dependencies</text>
<g id="clust1" class="cluster">
<title>cluster_ConnectionModule</title>
<polygon fill="none" stroke="black" stroke-dasharray="1,5" points="8,-32.8 8,-230.8 573,-230.8 573,-32.8 8,-32.8"/>
</g>
<g id="clust4" class="cluster">
<title>cluster_ConnectionModule_exports</title>
<polygon fill="none" stroke="black" points="173,-170.8 173,-222.8 315,-222.8 315,-170.8 173,-170.8"/>
</g>
<g id="clust6" class="cluster">
<title>cluster_ConnectionModule_providers</title>
<polygon fill="none" stroke="black" points="379,-40.8 379,-92.8 565,-92.8 565,-40.8 379,-40.8"/>
</g>
<g id="clust3" class="cluster">
<title>cluster_ConnectionModule_imports</title>
<polygon fill="none" stroke="black" points="16,-40.8 16,-92.8 371,-92.8 371,-40.8 16,-40.8"/>
</g>
<!-- DatabaseModule -->
<g id="node1" class="node">
<title>DatabaseModule</title>
<polygon fill="#8dd3c7" stroke="black" points="363.36,-84.8 360.36,-88.8 339.36,-88.8 336.36,-84.8 252.64,-84.8 252.64,-48.8 363.36,-48.8 363.36,-84.8"/>
<text text-anchor="middle" x="308" y="-62.6" font-family="Times,serif" font-size="14.00">DatabaseModule</text>
</g>
<!-- ConnectionModule -->
<g id="node4" class="node">
<title>ConnectionModule</title>
<polygon fill="#8dd3c7" stroke="black" points="306.1,-149.8 303.1,-153.8 282.1,-153.8 279.1,-149.8 181.9,-149.8 181.9,-113.8 306.1,-113.8 306.1,-149.8"/>
<text text-anchor="middle" x="244" y="-127.6" font-family="Times,serif" font-size="14.00">ConnectionModule</text>
</g>
<!-- DatabaseModule&#45;&gt;ConnectionModule -->
<g id="edge1" class="edge">
<title>DatabaseModule&#45;&gt;ConnectionModule</title>
<path fill="none" stroke="black" d="M279.31,-84.91C279.31,-84.91 279.31,-103.79 279.31,-103.79"/>
<polygon fill="black" stroke="black" points="275.81,-103.79 279.31,-113.79 282.81,-103.79 275.81,-103.79"/>
</g>
<!-- ProblemModule -->
<g id="node2" class="node">
<title>ProblemModule</title>
<polygon fill="#8dd3c7" stroke="black" points="234.49,-84.8 231.49,-88.8 210.49,-88.8 207.49,-84.8 127.51,-84.8 127.51,-48.8 234.49,-48.8 234.49,-84.8"/>
<text text-anchor="middle" x="181" y="-62.6" font-family="Times,serif" font-size="14.00">ProblemModule</text>
</g>
<!-- ProblemModule&#45;&gt;ConnectionModule -->
<g id="edge2" class="edge">
<title>ProblemModule&#45;&gt;ConnectionModule</title>
<path fill="none" stroke="black" d="M208.22,-84.91C208.22,-84.91 208.22,-103.79 208.22,-103.79"/>
<polygon fill="black" stroke="black" points="204.72,-103.79 208.22,-113.79 211.72,-103.79 204.72,-103.79"/>
</g>
<!-- UserModule -->
<g id="node3" class="node">
<title>UserModule</title>
<polygon fill="#8dd3c7" stroke="black" points="109.99,-84.8 106.99,-88.8 85.99,-88.8 82.99,-84.8 24.01,-84.8 24.01,-48.8 109.99,-48.8 109.99,-84.8"/>
<text text-anchor="middle" x="67" y="-62.6" font-family="Times,serif" font-size="14.00">UserModule</text>
</g>
<!-- UserModule&#45;&gt;ConnectionModule -->
<g id="edge3" class="edge">
<title>UserModule&#45;&gt;ConnectionModule</title>
<path fill="none" stroke="black" d="M67,-84.91C67,-104.14 67,-131.8 67,-131.8 67,-131.8 171.6,-131.8 171.6,-131.8"/>
<polygon fill="black" stroke="black" points="171.6,-135.3 181.6,-131.8 171.6,-128.3 171.6,-135.3"/>
</g>
<!-- ConnectionService  -->
<g id="node5" class="node">
<title>ConnectionService </title>
<polygon fill="#fb8072" stroke="black" points="307.02,-214.8 180.98,-214.8 180.98,-178.8 307.02,-178.8 307.02,-214.8"/>
<text text-anchor="middle" x="244" y="-192.6" font-family="Times,serif" font-size="14.00">ConnectionService </text>
</g>
<!-- ConnectionModule&#45;&gt;ConnectionService  -->
<g id="edge4" class="edge">
<title>ConnectionModule&#45;&gt;ConnectionService </title>
<path fill="none" stroke="black" stroke-dasharray="5,2" d="M244,-149.91C244,-149.91 244,-168.79 244,-168.79"/>
<polygon fill="black" stroke="black" points="240.5,-168.79 244,-178.79 247.5,-168.79 240.5,-168.79"/>
</g>
<!-- ConnectionService -->
<g id="node6" class="node">
<title>ConnectionService</title>
<ellipse fill="#fdb462" stroke="black" cx="472" cy="-66.8" rx="84.53" ry="18"/>
<text text-anchor="middle" x="472" y="-62.6" font-family="Times,serif" font-size="14.00">ConnectionService</text>
</g>
<!-- ConnectionService&#45;&gt;ConnectionModule -->
<g id="edge5" class="edge">
<title>ConnectionService&#45;&gt;ConnectionModule</title>
<path fill="none" stroke="black" d="M472,-84.91C472,-104.14 472,-131.8 472,-131.8 472,-131.8 316.3,-131.8 316.3,-131.8"/>
<polygon fill="black" stroke="black" points="316.3,-128.3 306.3,-131.8 316.3,-135.3 316.3,-128.3"/>
</g>
</g>
</svg>
