<?xml version="1.0" encoding="UTF-8" standalone="no"?>
<!DOCTYPE svg PUBLIC "-//W3C//DTD SVG 1.1//EN"
 "http://www.w3.org/Graphics/SVG/1.1/DTD/svg11.dtd">
<!-- Generated by graphviz version 5.0.0 (20220707.1540)
 -->
<!-- Title: dependencies Pages: 1 -->
<svg width="517pt" height="174pt"
 viewBox="0.00 0.00 517.00 173.80" xmlns="http://www.w3.org/2000/svg" xmlns:xlink="http://www.w3.org/1999/xlink">
<g id="graph0" class="graph" transform="scale(1 1) rotate(0) translate(4 169.8)">
<title>dependencies</title>
<polygon fill="white" stroke="transparent" points="-4,4 -4,-169.8 513,-169.8 513,4 -4,4"/>
<text text-anchor="middle" x="254.5" y="-8.2" font-family="sans-serif" font-size="14.00">dependencies</text>
<g id="clust1" class="cluster">
<title>cluster_ParameterizerModule</title>
<polygon fill="none" stroke="black" stroke-dasharray="1,5" points="8,-32.8 8,-157.8 501,-157.8 501,-32.8 8,-32.8"/>
</g>
<g id="clust3" class="cluster">
<title>cluster_ParameterizerModule_imports</title>
<polygon fill="none" stroke="black" points="228,-40.8 228,-92.8 493,-92.8 493,-40.8 228,-40.8"/>
</g>
<g id="clust6" class="cluster">
<title>cluster_ParameterizerModule_providers</title>
<polygon fill="none" stroke="black" points="16,-40.8 16,-92.8 220,-92.8 220,-40.8 16,-40.8"/>
</g>
<!-- ConnectionModule -->
<g id="node1" class="node">
<title>ConnectionModule</title>
<polygon fill="#8dd3c7" stroke="black" points="485.1,-84.8 482.1,-88.8 461.1,-88.8 458.1,-84.8 360.9,-84.8 360.9,-48.8 485.1,-48.8 485.1,-84.8"/>
<text text-anchor="middle" x="423" y="-62.6" font-family="Times,serif" font-size="14.00">ConnectionModule</text>
</g>
<!-- ParameterizerModule -->
<g id="node3" class="node">
<title>ParameterizerModule</title>
<polygon fill="#8dd3c7" stroke="black" points="357.78,-149.8 354.78,-153.8 333.78,-153.8 330.78,-149.8 220.22,-149.8 220.22,-113.8 357.78,-113.8 357.78,-149.8"/>
<text text-anchor="middle" x="289" y="-127.6" font-family="Times,serif" font-size="14.00">ParameterizerModule</text>
</g>
<!-- ConnectionModule&#45;&gt;ParameterizerModule -->
<g id="edge1" class="edge">
<title>ConnectionModule&#45;&gt;ParameterizerModule</title>
<path fill="none" stroke="black" d="M360.83,-66.8C354.35,-66.8 350.07,-66.8 350.07,-66.8 350.07,-66.8 350.07,-103.69 350.07,-103.69"/>
<polygon fill="black" stroke="black" points="346.57,-103.69 350.07,-113.69 353.57,-103.69 346.57,-103.69"/>
</g>
<!-- ProblemModule -->
<g id="node2" class="node">
<title>ProblemModule</title>
<polygon fill="#8dd3c7" stroke="black" points="342.49,-84.8 339.49,-88.8 318.49,-88.8 315.49,-84.8 235.51,-84.8 235.51,-48.8 342.49,-48.8 342.49,-84.8"/>
<text text-anchor="middle" x="289" y="-62.6" font-family="Times,serif" font-size="14.00">ProblemModule</text>
</g>
<!-- ProblemModule&#45;&gt;ParameterizerModule -->
<g id="edge2" class="edge">
<title>ProblemModule&#45;&gt;ParameterizerModule</title>
<path fill="none" stroke="black" d="M289,-84.91C289,-84.91 289,-103.79 289,-103.79"/>
<polygon fill="black" stroke="black" points="285.5,-103.79 289,-113.79 292.5,-103.79 285.5,-103.79"/>
</g>
<!-- ParameterizerService -->
<g id="node4" class="node">
<title>ParameterizerService</title>
<ellipse fill="#fdb462" stroke="black" cx="118" cy="-66.8" rx="93.71" ry="18"/>
<text text-anchor="middle" x="118" y="-62.6" font-family="Times,serif" font-size="14.00">ParameterizerService</text>
</g>
<!-- ParameterizerService&#45;&gt;ParameterizerModule -->
<g id="edge3" class="edge">
<title>ParameterizerService&#45;&gt;ParameterizerModule</title>
<path fill="none" stroke="black" d="M211.71,-66.8C221.48,-66.8 227.93,-66.8 227.93,-66.8 227.93,-66.8 227.93,-103.69 227.93,-103.69"/>
<polygon fill="black" stroke="black" points="224.43,-103.69 227.93,-113.69 231.43,-103.69 224.43,-103.69"/>
</g>
</g>
</svg>
