<?xml version="1.0" encoding="UTF-8" standalone="no"?>
<!DOCTYPE svg PUBLIC "-//W3C//DTD SVG 1.1//EN"
 "http://www.w3.org/Graphics/SVG/1.1/DTD/svg11.dtd">
<!-- Generated by graphviz version 5.0.0 (20220707.1540)
 -->
<!-- Title: dependencies Pages: 1 -->
<svg width="517pt" height="174pt"
 viewBox="0.00 0.00 517.00 173.80" xmlns="http://www.w3.org/2000/svg" xmlns:xlink="http://www.w3.org/1999/xlink">
<g id="graph0" class="graph" transform="scale(1 1) rotate(0) translate(4 169.8)">
<title>dependencies</title>
<polygon fill="white" stroke="transparent" points="-4,4 -4,-169.8 513,-169.8 513,4 -4,4"/>
<text text-anchor="middle" x="254.5" y="-8.2" font-family="sans-serif" font-size="14.00">dependencies</text>
<g id="clust1" class="cluster">
<title>cluster_ParameterizerModule</title>
<polygon fill="none" stroke="black" stroke-dasharray="1,5" points="8,-32.8 8,-157.8 501,-157.8 501,-32.8 8,-32.8"/>
</g>
<g id="clust6" class="cluster">
<title>cluster_ParameterizerModule_providers</title>
<polygon fill="none" stroke="black" points="289,-40.8 289,-92.8 493,-92.8 493,-40.8 289,-40.8"/>
</g>
<g id="clust3" class="cluster">
<title>cluster_ParameterizerModule_imports</title>
<polygon fill="none" stroke="black" points="16,-40.8 16,-92.8 281,-92.8 281,-40.8 16,-40.8"/>
</g>
<!-- ConnectionModule -->
<g id="node1" class="node">
<title>ConnectionModule</title>
<polygon fill="#8dd3c7" stroke="black" points="273.1,-84.8 270.1,-88.8 249.1,-88.8 246.1,-84.8 148.9,-84.8 148.9,-48.8 273.1,-48.8 273.1,-84.8"/>
<text text-anchor="middle" x="211" y="-62.6" font-family="Times,serif" font-size="14.00">ConnectionModule</text>
</g>
<!-- ParameterizerModule -->
<g id="node3" class="node">
<title>ParameterizerModule</title>
<polygon fill="#8dd3c7" stroke="black" points="279.78,-149.8 276.78,-153.8 255.78,-153.8 252.78,-149.8 142.22,-149.8 142.22,-113.8 279.78,-113.8 279.78,-149.8"/>
<text text-anchor="middle" x="211" y="-127.6" font-family="Times,serif" font-size="14.00">ParameterizerModule</text>
</g>
<!-- ConnectionModule&#45;&gt;ParameterizerModule -->
<g id="edge1" class="edge">
<title>ConnectionModule&#45;&gt;ParameterizerModule</title>
<path fill="none" stroke="black" d="M211,-84.91C211,-84.91 211,-103.79 211,-103.79"/>
<polygon fill="black" stroke="black" points="207.5,-103.79 211,-113.79 214.5,-103.79 207.5,-103.79"/>
</g>
<!-- ProblemModule -->
<g id="node2" class="node">
<title>ProblemModule</title>
<polygon fill="#8dd3c7" stroke="black" points="130.49,-84.8 127.49,-88.8 106.49,-88.8 103.49,-84.8 23.51,-84.8 23.51,-48.8 130.49,-48.8 130.49,-84.8"/>
<text text-anchor="middle" x="77" y="-62.6" font-family="Times,serif" font-size="14.00">ProblemModule</text>
</g>
<!-- ProblemModule&#45;&gt;ParameterizerModule -->
<g id="edge2" class="edge">
<title>ProblemModule&#45;&gt;ParameterizerModule</title>
<path fill="none" stroke="black" d="M77,-84.91C77,-104.14 77,-131.8 77,-131.8 77,-131.8 132.04,-131.8 132.04,-131.8"/>
<polygon fill="black" stroke="black" points="132.04,-135.3 142.04,-131.8 132.04,-128.3 132.04,-135.3"/>
</g>
<!-- ParameterizerService -->
<g id="node4" class="node">
<title>ParameterizerService</title>
<ellipse fill="#fdb462" stroke="black" cx="391" cy="-66.8" rx="93.71" ry="18"/>
<text text-anchor="middle" x="391" y="-62.6" font-family="Times,serif" font-size="14.00">ParameterizerService</text>
</g>
<!-- ParameterizerService&#45;&gt;ParameterizerModule -->
<g id="edge3" class="edge">
<title>ParameterizerService&#45;&gt;ParameterizerModule</title>
<path fill="none" stroke="black" d="M391,-84.91C391,-104.14 391,-131.8 391,-131.8 391,-131.8 289.82,-131.8 289.82,-131.8"/>
<polygon fill="black" stroke="black" points="289.82,-128.3 279.82,-131.8 289.82,-135.3 289.82,-128.3"/>
</g>
</g>
</svg>
