<?xml version="1.0" encoding="UTF-8" standalone="no"?>
<!DOCTYPE svg PUBLIC "-//W3C//DTD SVG 1.1//EN"
 "http://www.w3.org/Graphics/SVG/1.1/DTD/svg11.dtd">
<!-- Generated by graphviz version 5.0.0 (20220707.1540)
 -->
<!-- Title: dependencies Pages: 1 -->
<svg width="681pt" height="174pt"
 viewBox="0.00 0.00 681.00 173.80" xmlns="http://www.w3.org/2000/svg" xmlns:xlink="http://www.w3.org/1999/xlink">
<g id="graph0" class="graph" transform="scale(1 1) rotate(0) translate(4 169.8)">
<title>dependencies</title>
<polygon fill="white" stroke="transparent" points="-4,4 -4,-169.8 677,-169.8 677,4 -4,4"/>
<text text-anchor="middle" x="336.5" y="-8.2" font-family="sans-serif" font-size="14.00">dependencies</text>
<g id="clust1" class="cluster">
<title>cluster_AppModule</title>
<polygon fill="none" stroke="black" stroke-dasharray="1,5" points="8,-32.8 8,-157.8 665,-157.8 665,-32.8 8,-32.8"/>
</g>
<g id="clust3" class="cluster">
<title>cluster_AppModule_imports</title>
<polygon fill="none" stroke="black" points="321,-40.8 321,-92.8 657,-92.8 657,-40.8 321,-40.8"/>
</g>
<g id="clust6" class="cluster">
<title>cluster_AppModule_providers</title>
<polygon fill="none" stroke="black" points="16,-40.8 16,-92.8 313,-92.8 313,-40.8 16,-40.8"/>
</g>
<!-- AuthModule -->
<g id="node1" class="node">
<title>AuthModule</title>
<polygon fill="#8dd3c7" stroke="black" points="648.55,-84.8 645.55,-88.8 624.55,-88.8 621.55,-84.8 561.45,-84.8 561.45,-48.8 648.55,-48.8 648.55,-84.8"/>
<text text-anchor="middle" x="605" y="-62.6" font-family="Times,serif" font-size="14.00">AuthModule</text>
</g>
<!-- AppModule -->
<g id="node4" class="node">
<title>AppModule</title>
<polygon fill="#8dd3c7" stroke="black" points="413.66,-149.8 410.66,-153.8 389.66,-153.8 386.66,-149.8 330.34,-149.8 330.34,-113.8 413.66,-113.8 413.66,-149.8"/>
<text text-anchor="middle" x="372" y="-127.6" font-family="Times,serif" font-size="14.00">AppModule</text>
</g>
<!-- AuthModule&#45;&gt;AppModule -->
<g id="edge1" class="edge">
<title>AuthModule&#45;&gt;AppModule</title>
<path fill="none" stroke="black" d="M605,-85.08C605,-106.12 605,-137.8 605,-137.8 605,-137.8 423.92,-137.8 423.92,-137.8"/>
<polygon fill="black" stroke="black" points="423.92,-134.3 413.92,-137.8 423.92,-141.3 423.92,-134.3"/>
</g>
<!-- SendgridModule -->
<g id="node2" class="node">
<title>SendgridModule</title>
<polygon fill="#8dd3c7" stroke="black" points="543.1,-84.8 540.1,-88.8 519.1,-88.8 516.1,-84.8 432.9,-84.8 432.9,-48.8 543.1,-48.8 543.1,-84.8"/>
<text text-anchor="middle" x="488" y="-62.6" font-family="Times,serif" font-size="14.00">SendgridModule</text>
</g>
<!-- SendgridModule&#45;&gt;AppModule -->
<g id="edge2" class="edge">
<title>SendgridModule&#45;&gt;AppModule</title>
<path fill="none" stroke="black" d="M488,-84.82C488,-102.17 488,-125.8 488,-125.8 488,-125.8 423.88,-125.8 423.88,-125.8"/>
<polygon fill="black" stroke="black" points="423.88,-122.3 413.88,-125.8 423.88,-129.3 423.88,-122.3"/>
</g>
<!-- UserModule -->
<g id="node3" class="node">
<title>UserModule</title>
<polygon fill="#8dd3c7" stroke="black" points="414.99,-84.8 411.99,-88.8 390.99,-88.8 387.99,-84.8 329.01,-84.8 329.01,-48.8 414.99,-48.8 414.99,-84.8"/>
<text text-anchor="middle" x="372" y="-62.6" font-family="Times,serif" font-size="14.00">UserModule</text>
</g>
<!-- UserModule&#45;&gt;AppModule -->
<g id="edge3" class="edge">
<title>UserModule&#45;&gt;AppModule</title>
<path fill="none" stroke="black" d="M372,-84.91C372,-84.91 372,-103.79 372,-103.79"/>
<polygon fill="black" stroke="black" points="368.5,-103.79 372,-113.79 375.5,-103.79 368.5,-103.79"/>
</g>
<!-- AppService -->
<g id="node5" class="node">
<title>AppService</title>
<ellipse fill="#fdb462" stroke="black" cx="248" cy="-66.8" rx="56.75" ry="18"/>
<text text-anchor="middle" x="248" y="-62.6" font-family="Times,serif" font-size="14.00">AppService</text>
</g>
<!-- AppService&#45;&gt;AppModule -->
<g id="edge4" class="edge">
<title>AppService&#45;&gt;AppModule</title>
<path fill="none" stroke="black" d="M248,-84.82C248,-102.17 248,-125.8 248,-125.8 248,-125.8 320.02,-125.8 320.02,-125.8"/>
<polygon fill="black" stroke="black" points="320.02,-129.3 330.02,-125.8 320.02,-122.3 320.02,-129.3"/>
</g>
<!-- SendgridService -->
<g id="node6" class="node">
<title>SendgridService</title>
<ellipse fill="#fdb462" stroke="black" cx="99" cy="-66.8" rx="74.73" ry="18"/>
<text text-anchor="middle" x="99" y="-62.6" font-family="Times,serif" font-size="14.00">SendgridService</text>
</g>
<!-- SendgridService&#45;&gt;AppModule -->
<g id="edge5" class="edge">
<title>SendgridService&#45;&gt;AppModule</title>
<path fill="none" stroke="black" d="M99,-85.08C99,-106.12 99,-137.8 99,-137.8 99,-137.8 320.24,-137.8 320.24,-137.8"/>
<polygon fill="black" stroke="black" points="320.24,-141.3 330.24,-137.8 320.24,-134.3 320.24,-141.3"/>
</g>
</g>
</svg>
