<?xml version="1.0" encoding="UTF-8" standalone="no"?>
<!DOCTYPE svg PUBLIC "-//W3C//DTD SVG 1.1//EN"
 "http://www.w3.org/Graphics/SVG/1.1/DTD/svg11.dtd">
<!-- Generated by graphviz version 5.0.0 (20220707.1540)
 -->
<!-- Title: dependencies Pages: 1 -->
<svg width="1346pt" height="174pt"
 viewBox="0.00 0.00 1346.00 173.80" xmlns="http://www.w3.org/2000/svg" xmlns:xlink="http://www.w3.org/1999/xlink">
<g id="graph0" class="graph" transform="scale(1 1) rotate(0) translate(4 169.8)">
<title>dependencies</title>
<polygon fill="white" stroke="transparent" points="-4,4 -4,-169.8 1342,-169.8 1342,4 -4,4"/>
<text text-anchor="middle" x="669" y="-8.2" font-family="sans-serif" font-size="14.00">dependencies</text>
<g id="clust1" class="cluster">
<title>cluster_AppModule</title>
<polygon fill="none" stroke="black" stroke-dasharray="1,5" points="8,-32.8 8,-157.8 1330,-157.8 1330,-32.8 8,-32.8"/>
</g>
<g id="clust6" class="cluster">
<title>cluster_AppModule_providers</title>
<polygon fill="none" stroke="black" points="1025,-40.8 1025,-92.8 1322,-92.8 1322,-40.8 1025,-40.8"/>
</g>
<g id="clust3" class="cluster">
<title>cluster_AppModule_imports</title>
<polygon fill="none" stroke="black" points="16,-40.8 16,-92.8 1017,-92.8 1017,-40.8 16,-40.8"/>
</g>
<!-- AuthModule -->
<g id="node1" class="node">
<title>AuthModule</title>
<polygon fill="#8dd3c7" stroke="black" points="1008.55,-84.8 1005.55,-88.8 984.55,-88.8 981.55,-84.8 921.45,-84.8 921.45,-48.8 1008.55,-48.8 1008.55,-84.8"/>
<text text-anchor="middle" x="965" y="-62.6" font-family="Times,serif" font-size="14.00">AuthModule</text>
</g>
<!-- AppModule -->
<g id="node9" class="node">
<title>AppModule</title>
<polygon fill="#8dd3c7" stroke="black" points="676.66,-149.8 673.66,-153.8 652.66,-153.8 649.66,-149.8 593.34,-149.8 593.34,-113.8 676.66,-113.8 676.66,-149.8"/>
<text text-anchor="middle" x="635" y="-127.6" font-family="Times,serif" font-size="14.00">AppModule</text>
</g>
<!-- AuthModule&#45;&gt;AppModule -->
<g id="edge1" class="edge">
<title>AuthModule&#45;&gt;AppModule</title>
<path fill="none" stroke="black" d="M965,-85.07C965,-103.36 965,-128.8 965,-128.8 965,-128.8 686.79,-128.8 686.79,-128.8"/>
<polygon fill="black" stroke="black" points="686.79,-125.3 676.79,-128.8 686.79,-132.3 686.79,-125.3"/>
</g>
<!-- ConnectionModule -->
<g id="node2" class="node">
<title>ConnectionModule</title>
<polygon fill="#8dd3c7" stroke="black" points="903.1,-84.8 900.1,-88.8 879.1,-88.8 876.1,-84.8 778.9,-84.8 778.9,-48.8 903.1,-48.8 903.1,-84.8"/>
<text text-anchor="middle" x="841" y="-62.6" font-family="Times,serif" font-size="14.00">ConnectionModule</text>
</g>
<!-- ConnectionModule&#45;&gt;AppModule -->
<g id="edge2" class="edge">
<title>ConnectionModule&#45;&gt;AppModule</title>
<path fill="none" stroke="black" d="M841,-84.81C841,-100.85 841,-121.8 841,-121.8 841,-121.8 686.69,-121.8 686.69,-121.8"/>
<polygon fill="black" stroke="black" points="686.69,-118.3 676.69,-121.8 686.69,-125.3 686.69,-118.3"/>
</g>
<!-- DatabaseModule -->
<g id="node3" class="node">
<title>DatabaseModule</title>
<polygon fill="#8dd3c7" stroke="black" points="761.36,-84.8 758.36,-88.8 737.36,-88.8 734.36,-84.8 650.64,-84.8 650.64,-48.8 761.36,-48.8 761.36,-84.8"/>
<text text-anchor="middle" x="706" y="-62.6" font-family="Times,serif" font-size="14.00">DatabaseModule</text>
</g>
<!-- DatabaseModule&#45;&gt;AppModule -->
<g id="edge3" class="edge">
<title>DatabaseModule&#45;&gt;AppModule</title>
<path fill="none" stroke="black" d="M663.7,-84.91C663.7,-84.91 663.7,-103.79 663.7,-103.79"/>
<polygon fill="black" stroke="black" points="660.2,-103.79 663.7,-113.79 667.2,-103.79 660.2,-103.79"/>
</g>
<!-- ParameterizerModule -->
<g id="node4" class="node">
<title>ParameterizerModule</title>
<polygon fill="#8dd3c7" stroke="black" points="632.78,-84.8 629.78,-88.8 608.78,-88.8 605.78,-84.8 495.22,-84.8 495.22,-48.8 632.78,-48.8 632.78,-84.8"/>
<text text-anchor="middle" x="564" y="-62.6" font-family="Times,serif" font-size="14.00">ParameterizerModule</text>
</g>
<!-- ParameterizerModule&#45;&gt;AppModule -->
<g id="edge4" class="edge">
<title>ParameterizerModule&#45;&gt;AppModule</title>
<path fill="none" stroke="black" d="M612.9,-84.91C612.9,-84.91 612.9,-103.79 612.9,-103.79"/>
<polygon fill="black" stroke="black" points="609.4,-103.79 612.9,-113.79 616.4,-103.79 609.4,-103.79"/>
</g>
<!-- ProblemModule -->
<g id="node5" class="node">
<title>ProblemModule</title>
<polygon fill="#8dd3c7" stroke="black" points="477.49,-84.8 474.49,-88.8 453.49,-88.8 450.49,-84.8 370.51,-84.8 370.51,-48.8 477.49,-48.8 477.49,-84.8"/>
<text text-anchor="middle" x="424" y="-62.6" font-family="Times,serif" font-size="14.00">ProblemModule</text>
</g>
<!-- ProblemModule&#45;&gt;AppModule -->
<g id="edge5" class="edge">
<title>ProblemModule&#45;&gt;AppModule</title>
<path fill="none" stroke="black" d="M424,-84.81C424,-100.85 424,-121.8 424,-121.8 424,-121.8 583.31,-121.8 583.31,-121.8"/>
<polygon fill="black" stroke="black" points="583.31,-125.3 593.31,-121.8 583.31,-118.3 583.31,-125.3"/>
</g>
<!-- SendgridModule -->
<g id="node6" class="node">
<title>SendgridModule</title>
<polygon fill="#8dd3c7" stroke="black" points="352.1,-84.8 349.1,-88.8 328.1,-88.8 325.1,-84.8 241.9,-84.8 241.9,-48.8 352.1,-48.8 352.1,-84.8"/>
<text text-anchor="middle" x="297" y="-62.6" font-family="Times,serif" font-size="14.00">SendgridModule</text>
</g>
<!-- SendgridModule&#45;&gt;AppModule -->
<g id="edge6" class="edge">
<title>SendgridModule&#45;&gt;AppModule</title>
<path fill="none" stroke="black" d="M297,-85.07C297,-103.36 297,-128.8 297,-128.8 297,-128.8 583.22,-128.8 583.22,-128.8"/>
<polygon fill="black" stroke="black" points="583.22,-132.3 593.22,-128.8 583.22,-125.3 583.22,-132.3"/>
</g>
<!-- SolverModule -->
<g id="node7" class="node">
<title>SolverModule</title>
<polygon fill="#8dd3c7" stroke="black" points="224.1,-84.8 221.1,-88.8 200.1,-88.8 197.1,-84.8 127.9,-84.8 127.9,-48.8 224.1,-48.8 224.1,-84.8"/>
<text text-anchor="middle" x="176" y="-62.6" font-family="Times,serif" font-size="14.00">SolverModule</text>
</g>
<!-- SolverModule&#45;&gt;AppModule -->
<g id="edge7" class="edge">
<title>SolverModule&#45;&gt;AppModule</title>
<path fill="none" stroke="black" d="M176,-84.93C176,-105.37 176,-135.8 176,-135.8 176,-135.8 583.05,-135.8 583.05,-135.8"/>
<polygon fill="black" stroke="black" points="583.05,-139.3 593.05,-135.8 583.05,-132.3 583.05,-139.3"/>
</g>
<!-- UserModule -->
<g id="node8" class="node">
<title>UserModule</title>
<polygon fill="#8dd3c7" stroke="black" points="109.99,-84.8 106.99,-88.8 85.99,-88.8 82.99,-84.8 24.01,-84.8 24.01,-48.8 109.99,-48.8 109.99,-84.8"/>
<text text-anchor="middle" x="67" y="-62.6" font-family="Times,serif" font-size="14.00">UserModule</text>
</g>
<!-- UserModule&#45;&gt;AppModule -->
<g id="edge8" class="edge">
<title>UserModule&#45;&gt;AppModule</title>
<path fill="none" stroke="black" d="M67,-84.81C67,-107.29 67,-142.8 67,-142.8 67,-142.8 583.23,-142.8 583.23,-142.8"/>
<polygon fill="black" stroke="black" points="583.23,-146.3 593.23,-142.8 583.23,-139.3 583.23,-146.3"/>
</g>
<!-- AppService -->
<g id="node10" class="node">
<title>AppService</title>
<ellipse fill="#fdb462" stroke="black" cx="1257" cy="-66.8" rx="56.75" ry="18"/>
<text text-anchor="middle" x="1257" y="-62.6" font-family="Times,serif" font-size="14.00">AppService</text>
</g>
<!-- AppService&#45;&gt;AppModule -->
<g id="edge9" class="edge">
<title>AppService&#45;&gt;AppModule</title>
<path fill="none" stroke="black" d="M1257,-84.81C1257,-107.29 1257,-142.8 1257,-142.8 1257,-142.8 686.78,-142.8 686.78,-142.8"/>
<polygon fill="black" stroke="black" points="686.78,-139.3 676.78,-142.8 686.78,-146.3 686.78,-139.3"/>
</g>
<!-- SendgridService -->
<g id="node11" class="node">
<title>SendgridService</title>
<ellipse fill="#fdb462" stroke="black" cx="1108" cy="-66.8" rx="74.73" ry="18"/>
<text text-anchor="middle" x="1108" y="-62.6" font-family="Times,serif" font-size="14.00">SendgridService</text>
</g>
<!-- SendgridService&#45;&gt;AppModule -->
<g id="edge10" class="edge">
<title>SendgridService&#45;&gt;AppModule</title>
<path fill="none" stroke="black" d="M1108,-84.93C1108,-105.37 1108,-135.8 1108,-135.8 1108,-135.8 686.98,-135.8 686.98,-135.8"/>
<polygon fill="black" stroke="black" points="686.98,-132.3 676.98,-135.8 686.98,-139.3 686.98,-132.3"/>
</g>
</g>
</svg>
