<?xml version="1.0" encoding="UTF-8" standalone="no"?>
<!DOCTYPE svg PUBLIC "-//W3C//DTD SVG 1.1//EN"
 "http://www.w3.org/Graphics/SVG/1.1/DTD/svg11.dtd">
<!-- Generated by graphviz version 5.0.0 (20220707.1540)
 -->
<!-- Title: dependencies Pages: 1 -->
<svg width="1232pt" height="174pt"
 viewBox="0.00 0.00 1232.00 173.80" xmlns="http://www.w3.org/2000/svg" xmlns:xlink="http://www.w3.org/1999/xlink">
<g id="graph0" class="graph" transform="scale(1 1) rotate(0) translate(4 169.8)">
<title>dependencies</title>
<polygon fill="white" stroke="transparent" points="-4,4 -4,-169.8 1228,-169.8 1228,4 -4,4"/>
<text text-anchor="middle" x="612" y="-8.2" font-family="sans-serif" font-size="14.00">dependencies</text>
<g id="clust1" class="cluster">
<title>cluster_AppModule</title>
<polygon fill="none" stroke="black" stroke-dasharray="1,5" points="8,-32.8 8,-157.8 1216,-157.8 1216,-32.8 8,-32.8"/>
</g>
<g id="clust3" class="cluster">
<title>cluster_AppModule_imports</title>
<polygon fill="none" stroke="black" points="321,-40.8 321,-92.8 1208,-92.8 1208,-40.8 321,-40.8"/>
</g>
<g id="clust6" class="cluster">
<title>cluster_AppModule_providers</title>
<polygon fill="none" stroke="black" points="16,-40.8 16,-92.8 313,-92.8 313,-40.8 16,-40.8"/>
</g>
<!-- AuthModule -->
<g id="node1" class="node">
<title>AuthModule</title>
<polygon fill="#8dd3c7" stroke="black" points="1199.55,-84.8 1196.55,-88.8 1175.55,-88.8 1172.55,-84.8 1112.45,-84.8 1112.45,-48.8 1199.55,-48.8 1199.55,-84.8"/>
<text text-anchor="middle" x="1156" y="-62.6" font-family="Times,serif" font-size="14.00">AuthModule</text>
</g>
<!-- AppModule -->
<g id="node8" class="node">
<title>AppModule</title>
<polygon fill="#8dd3c7" stroke="black" points="656.66,-149.8 653.66,-153.8 632.66,-153.8 629.66,-149.8 573.34,-149.8 573.34,-113.8 656.66,-113.8 656.66,-149.8"/>
<text text-anchor="middle" x="615" y="-127.6" font-family="Times,serif" font-size="14.00">AppModule</text>
</g>
<!-- AuthModule&#45;&gt;AppModule -->
<g id="edge1" class="edge">
<title>AuthModule&#45;&gt;AppModule</title>
<path fill="none" stroke="black" d="M1156,-84.81C1156,-107.29 1156,-142.8 1156,-142.8 1156,-142.8 667,-142.8 667,-142.8"/>
<polygon fill="black" stroke="black" points="667,-139.3 657,-142.8 667,-146.3 667,-139.3"/>
</g>
<!-- ConnectionModule -->
<g id="node2" class="node">
<title>ConnectionModule</title>
<polygon fill="#8dd3c7" stroke="black" points="1094.1,-84.8 1091.1,-88.8 1070.1,-88.8 1067.1,-84.8 969.9,-84.8 969.9,-48.8 1094.1,-48.8 1094.1,-84.8"/>
<text text-anchor="middle" x="1032" y="-62.6" font-family="Times,serif" font-size="14.00">ConnectionModule</text>
</g>
<!-- ConnectionModule&#45;&gt;AppModule -->
<g id="edge2" class="edge">
<title>ConnectionModule&#45;&gt;AppModule</title>
<path fill="none" stroke="black" d="M1032,-84.93C1032,-105.37 1032,-135.8 1032,-135.8 1032,-135.8 666.89,-135.8 666.89,-135.8"/>
<polygon fill="black" stroke="black" points="666.89,-132.3 656.89,-135.8 666.89,-139.3 666.89,-132.3"/>
</g>
<!-- DatabaseModule -->
<g id="node3" class="node">
<title>DatabaseModule</title>
<polygon fill="#8dd3c7" stroke="black" points="952.36,-84.8 949.36,-88.8 928.36,-88.8 925.36,-84.8 841.64,-84.8 841.64,-48.8 952.36,-48.8 952.36,-84.8"/>
<text text-anchor="middle" x="897" y="-62.6" font-family="Times,serif" font-size="14.00">DatabaseModule</text>
</g>
<!-- DatabaseModule&#45;&gt;AppModule -->
<g id="edge3" class="edge">
<title>DatabaseModule&#45;&gt;AppModule</title>
<path fill="none" stroke="black" d="M897,-85.07C897,-103.36 897,-128.8 897,-128.8 897,-128.8 666.91,-128.8 666.91,-128.8"/>
<polygon fill="black" stroke="black" points="666.91,-125.3 656.91,-128.8 666.91,-132.3 666.91,-125.3"/>
</g>
<!-- ParameterizerModule -->
<g id="node4" class="node">
<title>ParameterizerModule</title>
<polygon fill="#8dd3c7" stroke="black" points="823.78,-84.8 820.78,-88.8 799.78,-88.8 796.78,-84.8 686.22,-84.8 686.22,-48.8 823.78,-48.8 823.78,-84.8"/>
<text text-anchor="middle" x="755" y="-62.6" font-family="Times,serif" font-size="14.00">ParameterizerModule</text>
</g>
<!-- ParameterizerModule&#45;&gt;AppModule -->
<g id="edge4" class="edge">
<title>ParameterizerModule&#45;&gt;AppModule</title>
<path fill="none" stroke="black" d="M755,-84.81C755,-100.85 755,-121.8 755,-121.8 755,-121.8 667,-121.8 667,-121.8"/>
<polygon fill="black" stroke="black" points="667,-118.3 657,-121.8 667,-125.3 667,-118.3"/>
</g>
<!-- ProblemModule -->
<g id="node5" class="node">
<title>ProblemModule</title>
<polygon fill="#8dd3c7" stroke="black" points="668.49,-84.8 665.49,-88.8 644.49,-88.8 641.49,-84.8 561.51,-84.8 561.51,-48.8 668.49,-48.8 668.49,-84.8"/>
<text text-anchor="middle" x="615" y="-62.6" font-family="Times,serif" font-size="14.00">ProblemModule</text>
</g>
<!-- ProblemModule&#45;&gt;AppModule -->
<g id="edge5" class="edge">
<title>ProblemModule&#45;&gt;AppModule</title>
<path fill="none" stroke="black" d="M615,-84.91C615,-84.91 615,-103.79 615,-103.79"/>
<polygon fill="black" stroke="black" points="611.5,-103.79 615,-113.79 618.5,-103.79 611.5,-103.79"/>
</g>
<!-- SendgridModule -->
<g id="node6" class="node">
<title>SendgridModule</title>
<polygon fill="#8dd3c7" stroke="black" points="543.1,-84.8 540.1,-88.8 519.1,-88.8 516.1,-84.8 432.9,-84.8 432.9,-48.8 543.1,-48.8 543.1,-84.8"/>
<text text-anchor="middle" x="488" y="-62.6" font-family="Times,serif" font-size="14.00">SendgridModule</text>
</g>
<!-- SendgridModule&#45;&gt;AppModule -->
<g id="edge6" class="edge">
<title>SendgridModule&#45;&gt;AppModule</title>
<path fill="none" stroke="black" d="M488,-84.81C488,-100.85 488,-121.8 488,-121.8 488,-121.8 563.06,-121.8 563.06,-121.8"/>
<polygon fill="black" stroke="black" points="563.06,-125.3 573.06,-121.8 563.06,-118.3 563.06,-125.3"/>
</g>
<!-- UserModule -->
<g id="node7" class="node">
<title>UserModule</title>
<polygon fill="#8dd3c7" stroke="black" points="414.99,-84.8 411.99,-88.8 390.99,-88.8 387.99,-84.8 329.01,-84.8 329.01,-48.8 414.99,-48.8 414.99,-84.8"/>
<text text-anchor="middle" x="372" y="-62.6" font-family="Times,serif" font-size="14.00">UserModule</text>
</g>
<!-- UserModule&#45;&gt;AppModule -->
<g id="edge7" class="edge">
<title>UserModule&#45;&gt;AppModule</title>
<path fill="none" stroke="black" d="M372,-85.07C372,-103.36 372,-128.8 372,-128.8 372,-128.8 563.23,-128.8 563.23,-128.8"/>
<polygon fill="black" stroke="black" points="563.23,-132.3 573.23,-128.8 563.23,-125.3 563.23,-132.3"/>
</g>
<!-- AppService -->
<g id="node9" class="node">
<title>AppService</title>
<ellipse fill="#fdb462" stroke="black" cx="248" cy="-66.8" rx="56.75" ry="18"/>
<text text-anchor="middle" x="248" y="-62.6" font-family="Times,serif" font-size="14.00">AppService</text>
</g>
<!-- AppService&#45;&gt;AppModule -->
<g id="edge8" class="edge">
<title>AppService&#45;&gt;AppModule</title>
<path fill="none" stroke="black" d="M248,-84.93C248,-105.37 248,-135.8 248,-135.8 248,-135.8 563.26,-135.8 563.26,-135.8"/>
<polygon fill="black" stroke="black" points="563.26,-139.3 573.26,-135.8 563.26,-132.3 563.26,-139.3"/>
</g>
<!-- SendgridService -->
<g id="node10" class="node">
<title>SendgridService</title>
<ellipse fill="#fdb462" stroke="black" cx="99" cy="-66.8" rx="74.73" ry="18"/>
<text text-anchor="middle" x="99" y="-62.6" font-family="Times,serif" font-size="14.00">SendgridService</text>
</g>
<!-- SendgridService&#45;&gt;AppModule -->
<g id="edge9" class="edge">
<title>SendgridService&#45;&gt;AppModule</title>
<path fill="none" stroke="black" d="M99,-84.81C99,-107.29 99,-142.8 99,-142.8 99,-142.8 563.21,-142.8 563.21,-142.8"/>
<polygon fill="black" stroke="black" points="563.21,-146.3 573.21,-142.8 563.21,-139.3 563.21,-146.3"/>
</g>
</g>
</svg>
