<?xml version="1.0" encoding="UTF-8" standalone="no"?>
<!DOCTYPE svg PUBLIC "-//W3C//DTD SVG 1.1//EN"
 "http://www.w3.org/Graphics/SVG/1.1/DTD/svg11.dtd">
<!-- Generated by graphviz version 5.0.0 (20220707.1540)
 -->
<!-- Title: dependencies Pages: 1 -->
<svg width="2560pt" height="394pt"
 viewBox="0.00 0.00 2560.00 393.80" xmlns="http://www.w3.org/2000/svg" xmlns:xlink="http://www.w3.org/1999/xlink">
<g id="graph0" class="graph" transform="scale(1 1) rotate(0) translate(4 389.8)">
<title>dependencies</title>
<polygon fill="white" stroke="transparent" points="-4,4 -4,-389.8 2556,-389.8 2556,4 -4,4"/>
<text text-anchor="middle" x="1276" y="-8.2" font-family="sans-serif" font-size="14.00">dependencies</text>
<g id="clust1" class="cluster">
<title>cluster_AppModule</title>
<polygon fill="none" stroke="black" stroke-dasharray="1,5" points="935,-32.8 935,-377.8 1466,-377.8 1466,-32.8 935,-32.8"/>
</g>
<g id="clust3" class="cluster">
<title>cluster_AppModule_imports</title>
<polygon fill="none" stroke="black" points="943,-108.8 943,-312.8 1426,-312.8 1426,-108.8 943,-108.8"/>
</g>
<g id="clust6" class="cluster">
<title>cluster_AppModule_providers</title>
<polygon fill="none" stroke="black" points="1161,-40.8 1161,-92.8 1458,-92.8 1458,-40.8 1161,-40.8"/>
</g>
<g id="clust7" class="cluster">
<title>cluster_AuthModule</title>
<polygon fill="none" stroke="black" stroke-dasharray="1,5" points="8,-100.8 8,-168.8 927,-168.8 927,-100.8 8,-100.8"/>
</g>
<g id="clust12" class="cluster">
<title>cluster_AuthModule_providers</title>
<polygon fill="none" stroke="black" points="16,-108.8 16,-160.8 919,-160.8 919,-108.8 16,-108.8"/>
</g>
<g id="clust13" class="cluster">
<title>cluster_ConnectionModule</title>
<polygon fill="none" stroke="black" stroke-dasharray="1,5" points="1474,-252.8 1474,-320.8 1826,-320.8 1826,-252.8 1474,-252.8"/>
</g>
<g id="clust16" class="cluster">
<title>cluster_ConnectionModule_exports</title>
<polygon fill="none" stroke="black" points="1676,-260.8 1676,-312.8 1818,-312.8 1818,-260.8 1676,-260.8"/>
</g>
<g id="clust18" class="cluster">
<title>cluster_ConnectionModule_providers</title>
<polygon fill="none" stroke="black" points="1482,-260.8 1482,-312.8 1668,-312.8 1668,-260.8 1482,-260.8"/>
</g>
<g id="clust19" class="cluster">
<title>cluster_DatabaseModule</title>
<polygon fill="none" stroke="black" stroke-dasharray="1,5" points="1474,-176.8 1474,-244.8 1792,-244.8 1792,-176.8 1474,-176.8"/>
</g>
<g id="clust22" class="cluster">
<title>cluster_DatabaseModule_exports</title>
<polygon fill="none" stroke="black" points="1656,-184.8 1656,-236.8 1784,-236.8 1784,-184.8 1656,-184.8"/>
</g>
<g id="clust24" class="cluster">
<title>cluster_DatabaseModule_providers</title>
<polygon fill="none" stroke="black" points="1482,-184.8 1482,-236.8 1648,-236.8 1648,-184.8 1482,-184.8"/>
</g>
<g id="clust25" class="cluster">
<title>cluster_ParameterizerModule</title>
<polygon fill="none" stroke="black" stroke-dasharray="1,5" points="707,-176.8 707,-244.8 927,-244.8 927,-176.8 707,-176.8"/>
</g>
<g id="clust30" class="cluster">
<title>cluster_ParameterizerModule_providers</title>
<polygon fill="none" stroke="black" points="715,-184.8 715,-236.8 919,-236.8 919,-184.8 715,-184.8"/>
</g>
<g id="clust31" class="cluster">
<title>cluster_ProblemModule</title>
<polygon fill="none" stroke="black" stroke-dasharray="1,5" points="1800,-176.8 1800,-244.8 2110,-244.8 2110,-176.8 1800,-176.8"/>
</g>
<g id="clust34" class="cluster">
<title>cluster_ProblemModule_exports</title>
<polygon fill="none" stroke="black" points="1978,-184.8 1978,-236.8 2102,-236.8 2102,-184.8 1978,-184.8"/>
</g>
<g id="clust36" class="cluster">
<title>cluster_ProblemModule_providers</title>
<polygon fill="none" stroke="black" points="1808,-184.8 1808,-236.8 1970,-236.8 1970,-184.8 1808,-184.8"/>
</g>
<g id="clust37" class="cluster">
<title>cluster_SendgridModule</title>
<polygon fill="none" stroke="black" stroke-dasharray="1,5" points="2118,-176.8 2118,-244.8 2262,-244.8 2262,-176.8 2118,-176.8"/>
</g>
<g id="clust40" class="cluster">
<title>cluster_SendgridModule_exports</title>
<polygon fill="none" stroke="black" points="2126,-184.8 2126,-236.8 2254,-236.8 2254,-184.8 2126,-184.8"/>
</g>
<g id="clust43" class="cluster">
<title>cluster_UserModule</title>
<polygon fill="none" stroke="black" stroke-dasharray="1,5" points="2270,-176.8 2270,-244.8 2544,-244.8 2544,-176.8 2270,-176.8"/>
</g>
<g id="clust46" class="cluster">
<title>cluster_UserModule_exports</title>
<polygon fill="none" stroke="black" points="2426,-184.8 2426,-236.8 2536,-236.8 2536,-184.8 2426,-184.8"/>
</g>
<g id="clust48" class="cluster">
<title>cluster_UserModule_providers</title>
<polygon fill="none" stroke="black" points="2278,-184.8 2278,-236.8 2418,-236.8 2418,-184.8 2278,-184.8"/>
</g>
<!-- AuthModule -->
<g id="node1" class="node">
<title>AuthModule</title>
<polygon fill="#8dd3c7" stroke="black" points="1038.55,-228.8 1035.55,-232.8 1014.55,-232.8 1011.55,-228.8 951.45,-228.8 951.45,-192.8 1038.55,-192.8 1038.55,-228.8"/>
<text text-anchor="middle" x="995" y="-206.6" font-family="Times,serif" font-size="14.00">AuthModule</text>
</g>
<!-- AppModule -->
<g id="node8" class="node">
<title>AppModule</title>
<polygon fill="#8dd3c7" stroke="black" points="1361.66,-369.8 1358.66,-373.8 1337.66,-373.8 1334.66,-369.8 1278.34,-369.8 1278.34,-333.8 1361.66,-333.8 1361.66,-369.8"/>
<text text-anchor="middle" x="1320" y="-347.6" font-family="Times,serif" font-size="14.00">AppModule</text>
</g>
<!-- AuthModule&#45;&gt;AppModule -->
<g id="edge1" class="edge">
<title>AuthModule&#45;&gt;AppModule</title>
<path fill="none" stroke="black" d="M995,-228.83C995,-268.08 995,-357.8 995,-357.8 995,-357.8 1268.18,-357.8 1268.18,-357.8"/>
<polygon fill="black" stroke="black" points="1268.18,-361.3 1278.18,-357.8 1268.18,-354.3 1268.18,-361.3"/>
</g>
<!-- ConnectionModule -->
<g id="node2" class="node">
<title>ConnectionModule</title>
<polygon fill="#8dd3c7" stroke="black" points="1281.1,-228.8 1278.1,-232.8 1257.1,-232.8 1254.1,-228.8 1156.9,-228.8 1156.9,-192.8 1281.1,-192.8 1281.1,-228.8"/>
<text text-anchor="middle" x="1219" y="-206.6" font-family="Times,serif" font-size="14.00">ConnectionModule</text>
</g>
<!-- ParameterizerModule -->
<g id="node4" class="node">
<title>ParameterizerModule</title>
<polygon fill="#8dd3c7" stroke="black" points="1207.78,-304.8 1204.78,-308.8 1183.78,-308.8 1180.78,-304.8 1070.22,-304.8 1070.22,-268.8 1207.78,-268.8 1207.78,-304.8"/>
<text text-anchor="middle" x="1139" y="-282.6" font-family="Times,serif" font-size="14.00">ParameterizerModule</text>
</g>
<!-- ConnectionModule&#45;&gt;ParameterizerModule -->
<g id="edge24" class="edge">
<title>ConnectionModule&#45;&gt;ParameterizerModule</title>
<path fill="none" stroke="black" d="M1182.29,-228.81C1182.29,-228.81 1182.29,-258.65 1182.29,-258.65"/>
<polygon fill="black" stroke="black" points="1178.8,-258.65 1182.29,-268.65 1185.8,-258.65 1178.8,-258.65"/>
</g>
<!-- ConnectionModule&#45;&gt;AppModule -->
<g id="edge2" class="edge">
<title>ConnectionModule&#45;&gt;AppModule</title>
<path fill="none" stroke="black" d="M1281.1,-210.8C1283.33,-210.8 1284.63,-210.8 1284.63,-210.8 1284.63,-210.8 1284.63,-323.66 1284.63,-323.66"/>
<polygon fill="black" stroke="black" points="1281.13,-323.66 1284.63,-333.66 1288.13,-323.66 1281.13,-323.66"/>
</g>
<!-- ConnectionService  -->
<g id="node16" class="node">
<title>ConnectionService </title>
<polygon fill="#fb8072" stroke="black" points="1810.02,-304.8 1683.98,-304.8 1683.98,-268.8 1810.02,-268.8 1810.02,-304.8"/>
<text text-anchor="middle" x="1747" y="-282.6" font-family="Times,serif" font-size="14.00">ConnectionService </text>
</g>
<!-- ConnectionModule&#45;&gt;ConnectionService  -->
<g id="edge20" class="edge">
<title>ConnectionModule&#45;&gt;ConnectionService </title>
<path fill="none" stroke="black" stroke-dasharray="5,2" d="M1231.15,-228.91C1231.15,-238.7 1231.15,-248.8 1231.15,-248.8 1231.15,-248.8 1730.19,-248.8 1730.19,-248.8 1730.19,-248.8 1730.19,-258.69 1730.19,-258.69"/>
<polygon fill="black" stroke="black" points="1726.69,-258.69 1730.19,-268.69 1733.69,-258.69 1726.69,-258.69"/>
</g>
<!-- DatabaseModule -->
<g id="node3" class="node">
<title>DatabaseModule</title>
<polygon fill="#8dd3c7" stroke="black" points="1418.36,-152.8 1415.36,-156.8 1394.36,-156.8 1391.36,-152.8 1307.64,-152.8 1307.64,-116.8 1418.36,-116.8 1418.36,-152.8"/>
<text text-anchor="middle" x="1363" y="-130.6" font-family="Times,serif" font-size="14.00">DatabaseModule</text>
</g>
<!-- DatabaseModule&#45;&gt;ConnectionModule -->
<g id="edge17" class="edge">
<title>DatabaseModule&#45;&gt;ConnectionModule</title>
<path fill="none" stroke="black" d="M1325.66,-152.83C1325.66,-177.78 1325.66,-219.8 1325.66,-219.8 1325.66,-219.8 1291.35,-219.8 1291.35,-219.8"/>
<polygon fill="black" stroke="black" points="1291.35,-216.3 1281.35,-219.8 1291.35,-223.3 1291.35,-216.3"/>
</g>
<!-- DatabaseModule&#45;&gt;AppModule -->
<g id="edge3" class="edge">
<title>DatabaseModule&#45;&gt;AppModule</title>
<path fill="none" stroke="black" d="M1343.74,-152.93C1343.74,-152.93 1343.74,-323.57 1343.74,-323.57"/>
<polygon fill="black" stroke="black" points="1340.24,-323.57 1343.74,-333.57 1347.24,-323.57 1340.24,-323.57"/>
</g>
<!-- DatabaseService  -->
<g id="node18" class="node">
<title>DatabaseService </title>
<polygon fill="#fb8072" stroke="black" points="1776.28,-228.8 1663.72,-228.8 1663.72,-192.8 1776.28,-192.8 1776.28,-228.8"/>
<text text-anchor="middle" x="1720" y="-206.6" font-family="Times,serif" font-size="14.00">DatabaseService </text>
</g>
<!-- DatabaseModule&#45;&gt;DatabaseService  -->
<g id="edge22" class="edge">
<title>DatabaseModule&#45;&gt;DatabaseService </title>
<path fill="none" stroke="black" stroke-dasharray="5,2" d="M1418.39,-134.8C1518.66,-134.8 1720,-134.8 1720,-134.8 1720,-134.8 1720,-182.79 1720,-182.79"/>
<polygon fill="black" stroke="black" points="1716.5,-182.79 1720,-192.79 1723.5,-182.79 1716.5,-182.79"/>
</g>
<!-- ParameterizerModule&#45;&gt;AppModule -->
<g id="edge4" class="edge">
<title>ParameterizerModule&#45;&gt;AppModule</title>
<path fill="none" stroke="black" d="M1207.97,-292.8C1244.88,-292.8 1282.84,-292.8 1282.84,-292.8 1282.84,-292.8 1282.84,-323.78 1282.84,-323.78"/>
<polygon fill="black" stroke="black" points="1279.34,-323.78 1282.84,-333.78 1286.34,-323.78 1279.34,-323.78"/>
</g>
<!-- ProblemModule -->
<g id="node5" class="node">
<title>ProblemModule</title>
<polygon fill="#8dd3c7" stroke="black" points="1186.49,-152.8 1183.49,-156.8 1162.49,-156.8 1159.49,-152.8 1079.51,-152.8 1079.51,-116.8 1186.49,-116.8 1186.49,-152.8"/>
<text text-anchor="middle" x="1133" y="-130.6" font-family="Times,serif" font-size="14.00">ProblemModule</text>
</g>
<!-- ProblemModule&#45;&gt;ConnectionModule -->
<g id="edge18" class="edge">
<title>ProblemModule&#45;&gt;ConnectionModule</title>
<path fill="none" stroke="black" d="M1162.86,-152.81C1162.86,-152.81 1162.86,-182.65 1162.86,-182.65"/>
<polygon fill="black" stroke="black" points="1159.36,-182.65 1162.86,-192.65 1166.36,-182.65 1159.36,-182.65"/>
</g>
<!-- ProblemModule&#45;&gt;ParameterizerModule -->
<g id="edge25" class="edge">
<title>ProblemModule&#45;&gt;ParameterizerModule</title>
<path fill="none" stroke="black" d="M1118.23,-152.83C1118.23,-152.83 1118.23,-258.79 1118.23,-258.79"/>
<polygon fill="black" stroke="black" points="1114.73,-258.79 1118.23,-268.79 1121.73,-258.79 1114.73,-258.79"/>
</g>
<!-- ProblemModule&#45;&gt;AppModule -->
<g id="edge5" class="edge">
<title>ProblemModule&#45;&gt;AppModule</title>
<path fill="none" stroke="black" d="M1174.68,-152.99C1174.68,-167.98 1174.68,-186.8 1174.68,-186.8 1174.68,-186.8 1286.42,-186.8 1286.42,-186.8 1286.42,-186.8 1286.42,-323.51 1286.42,-323.51"/>
<polygon fill="black" stroke="black" points="1282.92,-323.51 1286.42,-333.51 1289.92,-323.51 1282.92,-323.51"/>
</g>
<!-- ProblemService  -->
<g id="node21" class="node">
<title>ProblemService </title>
<polygon fill="#fb8072" stroke="black" points="2094.42,-228.8 1985.58,-228.8 1985.58,-192.8 2094.42,-192.8 2094.42,-228.8"/>
<text text-anchor="middle" x="2040" y="-206.6" font-family="Times,serif" font-size="14.00">ProblemService </text>
</g>
<!-- ProblemModule&#45;&gt;ProblemService  -->
<g id="edge27" class="edge">
<title>ProblemModule&#45;&gt;ProblemService </title>
<path fill="none" stroke="black" stroke-dasharray="5,2" d="M1180.59,-153.04C1180.59,-160.23 1180.59,-166.8 1180.59,-166.8 1180.59,-166.8 2040,-166.8 2040,-166.8 2040,-166.8 2040,-182.65 2040,-182.65"/>
<polygon fill="black" stroke="black" points="2036.5,-182.65 2040,-192.65 2043.5,-182.65 2036.5,-182.65"/>
</g>
<!-- SendgridModule -->
<g id="node6" class="node">
<title>SendgridModule</title>
<polygon fill="#8dd3c7" stroke="black" points="1061.1,-152.8 1058.1,-156.8 1037.1,-156.8 1034.1,-152.8 950.9,-152.8 950.9,-116.8 1061.1,-116.8 1061.1,-152.8"/>
<text text-anchor="middle" x="1006" y="-130.6" font-family="Times,serif" font-size="14.00">SendgridModule</text>
</g>
<!-- SendgridModule&#45;&gt;AuthModule -->
<g id="edge10" class="edge">
<title>SendgridModule&#45;&gt;AuthModule</title>
<path fill="none" stroke="black" d="M1013.76,-152.81C1013.76,-152.81 1013.76,-182.65 1013.76,-182.65"/>
<polygon fill="black" stroke="black" points="1010.26,-182.65 1013.76,-192.65 1017.26,-182.65 1010.26,-182.65"/>
</g>
<!-- SendgridModule&#45;&gt;AppModule -->
<g id="edge6" class="edge">
<title>SendgridModule&#45;&gt;AppModule</title>
<path fill="none" stroke="black" d="M1053.63,-153.16C1053.63,-204.49 1053.63,-345.8 1053.63,-345.8 1053.63,-345.8 1268.09,-345.8 1268.09,-345.8"/>
<polygon fill="black" stroke="black" points="1268.09,-349.3 1278.09,-345.8 1268.09,-342.3 1268.09,-349.3"/>
</g>
<!-- SendgridService  -->
<g id="node23" class="node">
<title>SendgridService </title>
<polygon fill="#fb8072" stroke="black" points="2246.03,-228.8 2133.97,-228.8 2133.97,-192.8 2246.03,-192.8 2246.03,-228.8"/>
<text text-anchor="middle" x="2190" y="-206.6" font-family="Times,serif" font-size="14.00">SendgridService </text>
</g>
<!-- SendgridModule&#45;&gt;SendgridService  -->
<g id="edge29" class="edge">
<title>SendgridModule&#45;&gt;SendgridService </title>
<path fill="none" stroke="black" stroke-dasharray="5,2" d="M1046.2,-153.01C1046.2,-158.35 1046.2,-162.8 1046.2,-162.8 1046.2,-162.8 2190,-162.8 2190,-162.8 2190,-162.8 2190,-182.65 2190,-182.65"/>
<polygon fill="black" stroke="black" points="2186.5,-182.65 2190,-192.65 2193.5,-182.65 2186.5,-182.65"/>
</g>
<!-- UserModule -->
<g id="node7" class="node">
<title>UserModule</title>
<polygon fill="#8dd3c7" stroke="black" points="1289.99,-152.8 1286.99,-156.8 1265.99,-156.8 1262.99,-152.8 1204.01,-152.8 1204.01,-116.8 1289.99,-116.8 1289.99,-152.8"/>
<text text-anchor="middle" x="1247" y="-130.6" font-family="Times,serif" font-size="14.00">UserModule</text>
</g>
<!-- UserModule&#45;&gt;AuthModule -->
<g id="edge11" class="edge">
<title>UserModule&#45;&gt;AuthModule</title>
<path fill="none" stroke="black" d="M1219.42,-152.81C1219.42,-168.85 1219.42,-189.8 1219.42,-189.8 1219.42,-189.8 1026.27,-189.8 1026.27,-189.8 1026.27,-189.8 1026.27,-190.09 1026.27,-190.09"/>
<polygon fill="black" stroke="black" points="1022.77,-182.72 1026.27,-192.72 1029.77,-182.72 1022.77,-182.72"/>
</g>
<!-- UserModule&#45;&gt;ConnectionModule -->
<g id="edge19" class="edge">
<title>UserModule&#45;&gt;ConnectionModule</title>
<path fill="none" stroke="black" d="M1234.82,-152.81C1234.82,-152.81 1234.82,-182.65 1234.82,-182.65"/>
<polygon fill="black" stroke="black" points="1231.32,-182.65 1234.82,-192.65 1238.32,-182.65 1231.32,-182.65"/>
</g>
<!-- UserModule&#45;&gt;AppModule -->
<g id="edge7" class="edge">
<title>UserModule&#45;&gt;AppModule</title>
<path fill="none" stroke="black" d="M1288.2,-152.93C1288.2,-152.93 1288.2,-323.57 1288.2,-323.57"/>
<polygon fill="black" stroke="black" points="1284.7,-323.57 1288.2,-333.57 1291.7,-323.57 1284.7,-323.57"/>
</g>
<!-- UsersService  -->
<g id="node24" class="node">
<title>UsersService </title>
<polygon fill="#fb8072" stroke="black" points="2527.86,-228.8 2434.14,-228.8 2434.14,-192.8 2527.86,-192.8 2527.86,-228.8"/>
<text text-anchor="middle" x="2481" y="-206.6" font-family="Times,serif" font-size="14.00">UsersService </text>
</g>
<!-- UserModule&#45;&gt;UsersService  -->
<g id="edge31" class="edge">
<title>UserModule&#45;&gt;UsersService </title>
<path fill="none" stroke="black" stroke-dasharray="5,2" d="M1250.23,-152.97C1250.23,-155.25 1250.23,-156.8 1250.23,-156.8 1250.23,-156.8 2481,-156.8 2481,-156.8 2481,-156.8 2481,-182.52 2481,-182.52"/>
<polygon fill="black" stroke="black" points="2477.5,-182.52 2481,-192.52 2484.5,-182.52 2477.5,-182.52"/>
</g>
<!-- AppService -->
<g id="node9" class="node">
<title>AppService</title>
<ellipse fill="#fdb462" stroke="black" cx="1393" cy="-66.8" rx="56.75" ry="18"/>
<text text-anchor="middle" x="1393" y="-62.6" font-family="Times,serif" font-size="14.00">AppService</text>
</g>
<!-- AppService&#45;&gt;AppModule -->
<g id="edge8" class="edge">
<title>AppService&#45;&gt;AppModule</title>
<path fill="none" stroke="black" d="M1434.03,-79.41C1434.03,-134.57 1434.03,-351.8 1434.03,-351.8 1434.03,-351.8 1371.81,-351.8 1371.81,-351.8"/>
<polygon fill="black" stroke="black" points="1371.81,-348.3 1361.81,-351.8 1371.81,-355.3 1371.81,-348.3"/>
</g>
<!-- SendgridService -->
<g id="node10" class="node">
<title>SendgridService</title>
<ellipse fill="#fdb462" stroke="black" cx="1244" cy="-66.8" rx="74.73" ry="18"/>
<text text-anchor="middle" x="1244" y="-62.6" font-family="Times,serif" font-size="14.00">SendgridService</text>
</g>
<!-- SendgridService&#45;&gt;SendgridModule -->
<g id="edge30" class="edge">
<title>SendgridService&#45;&gt;SendgridModule</title>
<path fill="none" stroke="black" d="M1169.02,-66.8C1099.26,-66.8 1006,-66.8 1006,-66.8 1006,-66.8 1006,-106.58 1006,-106.58"/>
<polygon fill="black" stroke="black" points="1002.5,-106.58 1006,-116.58 1009.5,-106.58 1002.5,-106.58"/>
</g>
<!-- SendgridService&#45;&gt;AppModule -->
<g id="edge9" class="edge">
<title>SendgridService&#45;&gt;AppModule</title>
<path fill="none" stroke="black" d="M1298.78,-79.41C1298.78,-79.41 1298.78,-323.72 1298.78,-323.72"/>
<polygon fill="black" stroke="black" points="1295.28,-323.72 1298.78,-333.72 1302.28,-323.72 1295.28,-323.72"/>
</g>
<!-- AuthService -->
<g id="node11" class="node">
<title>AuthService</title>
<ellipse fill="#fdb462" stroke="black" cx="215" cy="-134.8" rx="59.11" ry="18"/>
<text text-anchor="middle" x="215" y="-130.6" font-family="Times,serif" font-size="14.00">AuthService</text>
</g>
<!-- AuthService&#45;&gt;AuthModule -->
<g id="edge12" class="edge">
<title>AuthService&#45;&gt;AuthModule</title>
<path fill="none" stroke="black" d="M215,-152.84C215,-165.36 215,-179.8 215,-179.8 215,-179.8 976.24,-179.8 976.24,-179.8 976.24,-179.8 976.24,-182.77 976.24,-182.77"/>
<polygon fill="black" stroke="black" points="972.74,-182.77 976.24,-192.77 979.74,-182.77 972.74,-182.77"/>
</g>
<!-- JwtStrategy -->
<g id="node12" class="node">
<title>JwtStrategy</title>
<ellipse fill="#fdb462" stroke="black" cx="81" cy="-134.8" rx="56.77" ry="18"/>
<text text-anchor="middle" x="81" y="-130.6" font-family="Times,serif" font-size="14.00">JwtStrategy</text>
</g>
<!-- JwtStrategy&#45;&gt;AuthModule -->
<g id="edge13" class="edge">
<title>JwtStrategy&#45;&gt;AuthModule</title>
<path fill="none" stroke="black" d="M81,-152.95C81,-166.54 81,-182.8 81,-182.8 81,-182.8 963.73,-182.8 963.73,-182.8 963.73,-182.8 963.73,-183.78 963.73,-183.78"/>
<polygon fill="black" stroke="black" points="960.23,-182.59 963.73,-192.59 967.23,-182.59 960.23,-182.59"/>
</g>
<!-- JwtStrategyRefreshToken -->
<g id="node13" class="node">
<title>JwtStrategyRefreshToken</title>
<ellipse fill="#fdb462" stroke="black" cx="800" cy="-134.8" rx="111.17" ry="18"/>
<text text-anchor="middle" x="800" y="-130.6" font-family="Times,serif" font-size="14.00">JwtStrategyRefreshToken</text>
</g>
<!-- JwtStrategyRefreshToken&#45;&gt;AuthModule -->
<g id="edge14" class="edge">
<title>JwtStrategyRefreshToken&#45;&gt;AuthModule</title>
<path fill="none" stroke="black" d="M911.51,-134.8C923.33,-134.8 931.14,-134.8 931.14,-134.8 931.14,-134.8 931.14,-210.8 931.14,-210.8 931.14,-210.8 941.35,-210.8 941.35,-210.8"/>
<polygon fill="black" stroke="black" points="941.35,-214.3 951.35,-210.8 941.35,-207.3 941.35,-214.3"/>
</g>
<!-- JwtStrategyResetPassword -->
<g id="node14" class="node">
<title>JwtStrategyResetPassword</title>
<ellipse fill="#fdb462" stroke="black" cx="556" cy="-134.8" rx="115.22" ry="18"/>
<text text-anchor="middle" x="556" y="-130.6" font-family="Times,serif" font-size="14.00">JwtStrategyResetPassword</text>
</g>
<!-- JwtStrategyResetPassword&#45;&gt;AuthModule -->
<g id="edge15" class="edge">
<title>JwtStrategyResetPassword&#45;&gt;AuthModule</title>
<path fill="none" stroke="black" d="M556,-152.91C556,-162.7 556,-172.8 556,-172.8 556,-172.8 1001.25,-172.8 1001.25,-172.8 1001.25,-172.8 1001.25,-182.69 1001.25,-182.69"/>
<polygon fill="black" stroke="black" points="997.75,-182.69 1001.25,-192.69 1004.75,-182.69 997.75,-182.69"/>
</g>
<!-- LocalStrategy -->
<g id="node15" class="node">
<title>LocalStrategy</title>
<ellipse fill="#fdb462" stroke="black" cx="358" cy="-134.8" rx="65.4" ry="18"/>
<text text-anchor="middle" x="358" y="-130.6" font-family="Times,serif" font-size="14.00">LocalStrategy</text>
</g>
<!-- LocalStrategy&#45;&gt;AuthModule -->
<g id="edge16" class="edge">
<title>LocalStrategy&#45;&gt;AuthModule</title>
<path fill="none" stroke="black" d="M358,-152.86C358,-164.24 358,-176.8 358,-176.8 358,-176.8 988.75,-176.8 988.75,-176.8 988.75,-176.8 988.75,-182.61 988.75,-182.61"/>
<polygon fill="black" stroke="black" points="985.25,-182.61 988.75,-192.61 992.25,-182.61 985.25,-182.61"/>
</g>
<!-- ConnectionService -->
<g id="node17" class="node">
<title>ConnectionService</title>
<ellipse fill="#fdb462" stroke="black" cx="1575" cy="-286.8" rx="84.53" ry="18"/>
<text text-anchor="middle" x="1575" y="-282.6" font-family="Times,serif" font-size="14.00">ConnectionService</text>
</g>
<!-- ConnectionService&#45;&gt;ConnectionModule -->
<g id="edge21" class="edge">
<title>ConnectionService&#45;&gt;ConnectionModule</title>
<path fill="none" stroke="black" d="M1494.99,-280.8C1400.11,-280.8 1254.66,-280.8 1254.66,-280.8 1254.66,-280.8 1254.66,-238.83 1254.66,-238.83"/>
<polygon fill="black" stroke="black" points="1258.16,-238.83 1254.66,-228.83 1251.16,-238.83 1258.16,-238.83"/>
</g>
<!-- DatabaseService -->
<g id="node19" class="node">
<title>DatabaseService</title>
<ellipse fill="#fdb462" stroke="black" cx="1565" cy="-210.8" rx="75.26" ry="18"/>
<text text-anchor="middle" x="1565" y="-206.6" font-family="Times,serif" font-size="14.00">DatabaseService</text>
</g>
<!-- DatabaseService&#45;&gt;DatabaseModule -->
<g id="edge23" class="edge">
<title>DatabaseService&#45;&gt;DatabaseModule</title>
<path fill="none" stroke="black" d="M1499.39,-201.8C1449.77,-201.8 1390.13,-201.8 1390.13,-201.8 1390.13,-201.8 1390.13,-163.11 1390.13,-163.11"/>
<polygon fill="black" stroke="black" points="1393.63,-163.11 1390.13,-153.11 1386.63,-163.11 1393.63,-163.11"/>
</g>
<!-- ParameterizerService -->
<g id="node20" class="node">
<title>ParameterizerService</title>
<ellipse fill="#fdb462" stroke="black" cx="817" cy="-210.8" rx="93.71" ry="18"/>
<text text-anchor="middle" x="817" y="-206.6" font-family="Times,serif" font-size="14.00">ParameterizerService</text>
</g>
<!-- ParameterizerService&#45;&gt;ParameterizerModule -->
<g id="edge26" class="edge">
<title>ParameterizerService&#45;&gt;ParameterizerModule</title>
<path fill="none" stroke="black" d="M817,-228.81C817,-251.29 817,-286.8 817,-286.8 817,-286.8 1060.32,-286.8 1060.32,-286.8"/>
<polygon fill="black" stroke="black" points="1060.32,-290.3 1070.32,-286.8 1060.32,-283.3 1060.32,-290.3"/>
</g>
<!-- ProblemService -->
<g id="node22" class="node">
<title>ProblemService</title>
<ellipse fill="#fdb462" stroke="black" cx="1889" cy="-210.8" rx="72.94" ry="18"/>
<text text-anchor="middle" x="1889" y="-206.6" font-family="Times,serif" font-size="14.00">ProblemService</text>
</g>
<!-- ProblemService&#45;&gt;ProblemModule -->
<g id="edge28" class="edge">
<title>ProblemService&#45;&gt;ProblemModule</title>
<path fill="none" stroke="black" d="M1889,-192.7C1889,-181.71 1889,-169.8 1889,-169.8 1889,-169.8 1168.77,-169.8 1168.77,-169.8 1168.77,-169.8 1168.77,-163.12 1168.77,-163.12"/>
<polygon fill="black" stroke="black" points="1172.27,-163.12 1168.77,-153.12 1165.27,-163.12 1172.27,-163.12"/>
</g>
<!-- UsersService -->
<g id="node25" class="node">
<title>UsersService</title>
<ellipse fill="#fdb462" stroke="black" cx="2348" cy="-210.8" rx="61.97" ry="18"/>
<text text-anchor="middle" x="2348" y="-206.6" font-family="Times,serif" font-size="14.00">UsersService</text>
</g>
<!-- UsersService&#45;&gt;UserModule -->
<g id="edge32" class="edge">
<title>UsersService&#45;&gt;UserModule</title>
<path fill="none" stroke="black" d="M2348,-192.68C2348,-178.02 2348,-159.8 2348,-159.8 2348,-159.8 1265.64,-159.8 1265.64,-159.8 1265.64,-159.8 1265.64,-159.12 1265.64,-159.12"/>
<polygon fill="black" stroke="black" points="1269.14,-162.97 1265.64,-152.97 1262.14,-162.97 1269.14,-162.97"/>
</g>
</g>
</svg>
