<?xml version="1.0" encoding="UTF-8" standalone="no"?>
<!DOCTYPE svg PUBLIC "-//W3C//DTD SVG 1.1//EN"
 "http://www.w3.org/Graphics/SVG/1.1/DTD/svg11.dtd">
<!-- Generated by graphviz version 5.0.0 (20220707.1540)
 -->
<!-- Title: dependencies Pages: 1 -->
<svg width="2958pt" height="394pt"
 viewBox="0.00 0.00 2958.00 393.80" xmlns="http://www.w3.org/2000/svg" xmlns:xlink="http://www.w3.org/1999/xlink">
<g id="graph0" class="graph" transform="scale(1 1) rotate(0) translate(4 389.8)">
<title>dependencies</title>
<polygon fill="white" stroke="transparent" points="-4,4 -4,-389.8 2954,-389.8 2954,4 -4,4"/>
<text text-anchor="middle" x="1475" y="-8.2" font-family="sans-serif" font-size="14.00">dependencies</text>
<g id="clust1" class="cluster">
<title>cluster_AppModule</title>
<polygon fill="none" stroke="black" stroke-dasharray="1,5" points="935,-32.8 935,-377.8 1466,-377.8 1466,-32.8 935,-32.8"/>
</g>
<g id="clust3" class="cluster">
<title>cluster_AppModule_imports</title>
<polygon fill="none" stroke="black" points="943,-108.8 943,-312.8 1426,-312.8 1426,-108.8 943,-108.8"/>
</g>
<g id="clust6" class="cluster">
<title>cluster_AppModule_providers</title>
<polygon fill="none" stroke="black" points="1161,-40.8 1161,-92.8 1458,-92.8 1458,-40.8 1161,-40.8"/>
</g>
<g id="clust7" class="cluster">
<title>cluster_AuthModule</title>
<polygon fill="none" stroke="black" stroke-dasharray="1,5" points="8,-100.8 8,-168.8 927,-168.8 927,-100.8 8,-100.8"/>
</g>
<g id="clust12" class="cluster">
<title>cluster_AuthModule_providers</title>
<polygon fill="none" stroke="black" points="16,-108.8 16,-160.8 919,-160.8 919,-108.8 16,-108.8"/>
</g>
<g id="clust13" class="cluster">
<title>cluster_ConnectionModule</title>
<polygon fill="none" stroke="black" stroke-dasharray="1,5" points="575,-252.8 575,-320.8 927,-320.8 927,-252.8 575,-252.8"/>
</g>
<g id="clust16" class="cluster">
<title>cluster_ConnectionModule_exports</title>
<polygon fill="none" stroke="black" points="777,-260.8 777,-312.8 919,-312.8 919,-260.8 777,-260.8"/>
</g>
<g id="clust18" class="cluster">
<title>cluster_ConnectionModule_providers</title>
<polygon fill="none" stroke="black" points="583,-260.8 583,-312.8 769,-312.8 769,-260.8 583,-260.8"/>
</g>
<g id="clust19" class="cluster">
<title>cluster_DatabaseModule</title>
<polygon fill="none" stroke="black" stroke-dasharray="1,5" points="1984,-176.8 1984,-244.8 2302,-244.8 2302,-176.8 1984,-176.8"/>
</g>
<g id="clust22" class="cluster">
<title>cluster_DatabaseModule_exports</title>
<polygon fill="none" stroke="black" points="2166,-184.8 2166,-236.8 2294,-236.8 2294,-184.8 2166,-184.8"/>
</g>
<g id="clust24" class="cluster">
<title>cluster_DatabaseModule_providers</title>
<polygon fill="none" stroke="black" points="1992,-184.8 1992,-236.8 2158,-236.8 2158,-184.8 1992,-184.8"/>
</g>
<g id="clust25" class="cluster">
<title>cluster_ParameterizerModule</title>
<polygon fill="none" stroke="black" stroke-dasharray="1,5" points="1474,-176.8 1474,-244.8 1694,-244.8 1694,-176.8 1474,-176.8"/>
</g>
<g id="clust30" class="cluster">
<title>cluster_ParameterizerModule_providers</title>
<polygon fill="none" stroke="black" points="1482,-184.8 1482,-236.8 1686,-236.8 1686,-184.8 1482,-184.8"/>
</g>
<g id="clust31" class="cluster">
<title>cluster_ProblemModule</title>
<polygon fill="none" stroke="black" stroke-dasharray="1,5" points="2310,-176.8 2310,-244.8 2620,-244.8 2620,-176.8 2310,-176.8"/>
</g>
<g id="clust34" class="cluster">
<title>cluster_ProblemModule_exports</title>
<polygon fill="none" stroke="black" points="2488,-184.8 2488,-236.8 2612,-236.8 2612,-184.8 2488,-184.8"/>
</g>
<g id="clust36" class="cluster">
<title>cluster_ProblemModule_providers</title>
<polygon fill="none" stroke="black" points="2318,-184.8 2318,-236.8 2480,-236.8 2480,-184.8 2318,-184.8"/>
</g>
<g id="clust37" class="cluster">
<title>cluster_SendgridModule</title>
<polygon fill="none" stroke="black" stroke-dasharray="1,5" points="2628,-176.8 2628,-244.8 2772,-244.8 2772,-176.8 2628,-176.8"/>
</g>
<g id="clust40" class="cluster">
<title>cluster_SendgridModule_exports</title>
<polygon fill="none" stroke="black" points="2636,-184.8 2636,-236.8 2764,-236.8 2764,-184.8 2636,-184.8"/>
</g>
<g id="clust43" class="cluster">
<title>cluster_SolverModule</title>
<polygon fill="none" stroke="black" stroke-dasharray="1,5" points="2780,-176.8 2780,-244.8 2942,-244.8 2942,-176.8 2780,-176.8"/>
</g>
<g id="clust48" class="cluster">
<title>cluster_SolverModule_providers</title>
<polygon fill="none" stroke="black" points="2788,-184.8 2788,-236.8 2934,-236.8 2934,-184.8 2788,-184.8"/>
</g>
<g id="clust49" class="cluster">
<title>cluster_UserModule</title>
<polygon fill="none" stroke="black" stroke-dasharray="1,5" points="1702,-176.8 1702,-244.8 1976,-244.8 1976,-176.8 1702,-176.8"/>
</g>
<g id="clust52" class="cluster">
<title>cluster_UserModule_exports</title>
<polygon fill="none" stroke="black" points="1858,-184.8 1858,-236.8 1968,-236.8 1968,-184.8 1858,-184.8"/>
</g>
<g id="clust54" class="cluster">
<title>cluster_UserModule_providers</title>
<polygon fill="none" stroke="black" points="1710,-184.8 1710,-236.8 1850,-236.8 1850,-184.8 1710,-184.8"/>
</g>
<!-- AuthModule -->
<g id="node1" class="node">
<title>AuthModule</title>
<polygon fill="#8dd3c7" stroke="black" points="1038.55,-228.8 1035.55,-232.8 1014.55,-232.8 1011.55,-228.8 951.45,-228.8 951.45,-192.8 1038.55,-192.8 1038.55,-228.8"/>
<text text-anchor="middle" x="995" y="-206.6" font-family="Times,serif" font-size="14.00">AuthModule</text>
</g>
<!-- AppModule -->
<g id="node9" class="node">
<title>AppModule</title>
<polygon fill="#8dd3c7" stroke="black" points="1368.66,-369.8 1365.66,-373.8 1344.66,-373.8 1341.66,-369.8 1285.34,-369.8 1285.34,-333.8 1368.66,-333.8 1368.66,-369.8"/>
<text text-anchor="middle" x="1327" y="-347.6" font-family="Times,serif" font-size="14.00">AppModule</text>
</g>
<!-- AuthModule&#45;&gt;AppModule -->
<g id="edge1" class="edge">
<title>AuthModule&#45;&gt;AppModule</title>
<path fill="none" stroke="black" d="M995,-228.89C995,-268.79 995,-360.8 995,-360.8 995,-360.8 1275.29,-360.8 1275.29,-360.8"/>
<polygon fill="black" stroke="black" points="1275.29,-364.3 1285.29,-360.8 1275.29,-357.3 1275.29,-364.3"/>
</g>
<!-- ConnectionModule -->
<g id="node2" class="node">
<title>ConnectionModule</title>
<polygon fill="#8dd3c7" stroke="black" points="1181.1,-228.8 1178.1,-232.8 1157.1,-232.8 1154.1,-228.8 1056.9,-228.8 1056.9,-192.8 1181.1,-192.8 1181.1,-228.8"/>
<text text-anchor="middle" x="1119" y="-206.6" font-family="Times,serif" font-size="14.00">ConnectionModule</text>
</g>
<!-- ParameterizerModule -->
<g id="node4" class="node">
<title>ParameterizerModule</title>
<polygon fill="#8dd3c7" stroke="black" points="1183.78,-304.8 1180.78,-308.8 1159.78,-308.8 1156.78,-304.8 1046.22,-304.8 1046.22,-268.8 1183.78,-268.8 1183.78,-304.8"/>
<text text-anchor="middle" x="1115" y="-282.6" font-family="Times,serif" font-size="14.00">ParameterizerModule</text>
</g>
<!-- ConnectionModule&#45;&gt;ParameterizerModule -->
<g id="edge25" class="edge">
<title>ConnectionModule&#45;&gt;ParameterizerModule</title>
<path fill="none" stroke="black" d="M1139.68,-228.81C1139.68,-228.81 1139.68,-258.65 1139.68,-258.65"/>
<polygon fill="black" stroke="black" points="1136.18,-258.65 1139.68,-268.65 1143.18,-258.65 1136.18,-258.65"/>
</g>
<!-- SolverModule -->
<g id="node7" class="node">
<title>SolverModule</title>
<polygon fill="#8dd3c7" stroke="black" points="1298.1,-304.8 1295.1,-308.8 1274.1,-308.8 1271.1,-304.8 1201.9,-304.8 1201.9,-268.8 1298.1,-268.8 1298.1,-304.8"/>
<text text-anchor="middle" x="1250" y="-282.6" font-family="Times,serif" font-size="14.00">SolverModule</text>
</g>
<!-- ConnectionModule&#45;&gt;SolverModule -->
<g id="edge32" class="edge">
<title>ConnectionModule&#45;&gt;SolverModule</title>
<path fill="none" stroke="black" d="M1181.28,-221.8C1203.88,-221.8 1223.97,-221.8 1223.97,-221.8 1223.97,-221.8 1223.97,-258.69 1223.97,-258.69"/>
<polygon fill="black" stroke="black" points="1220.47,-258.69 1223.97,-268.69 1227.47,-258.69 1220.47,-258.69"/>
</g>
<!-- ConnectionModule&#45;&gt;AppModule -->
<g id="edge2" class="edge">
<title>ConnectionModule&#45;&gt;AppModule</title>
<path fill="none" stroke="black" d="M1181.27,-214.8C1233.62,-214.8 1299.96,-214.8 1299.96,-214.8 1299.96,-214.8 1299.96,-323.61 1299.96,-323.61"/>
<polygon fill="black" stroke="black" points="1296.46,-323.61 1299.96,-333.61 1303.46,-323.61 1296.46,-323.61"/>
</g>
<!-- ConnectionService  -->
<g id="node17" class="node">
<title>ConnectionService </title>
<polygon fill="#fb8072" stroke="black" points="911.02,-304.8 784.98,-304.8 784.98,-268.8 911.02,-268.8 911.02,-304.8"/>
<text text-anchor="middle" x="848" y="-282.6" font-family="Times,serif" font-size="14.00">ConnectionService </text>
</g>
<!-- ConnectionModule&#45;&gt;ConnectionService  -->
<g id="edge21" class="edge">
<title>ConnectionModule&#45;&gt;ConnectionService </title>
<path fill="none" stroke="black" stroke-dasharray="5,2" d="M1056.94,-216.8C1048.45,-216.8 1042.57,-216.8 1042.57,-216.8 1042.57,-216.8 1042.57,-286.8 1042.57,-286.8 1042.57,-286.8 921.17,-286.8 921.17,-286.8"/>
<polygon fill="black" stroke="black" points="921.17,-283.3 911.17,-286.8 921.17,-290.3 921.17,-283.3"/>
</g>
<!-- DatabaseModule -->
<g id="node3" class="node">
<title>DatabaseModule</title>
<polygon fill="#8dd3c7" stroke="black" points="1418.36,-152.8 1415.36,-156.8 1394.36,-156.8 1391.36,-152.8 1307.64,-152.8 1307.64,-116.8 1418.36,-116.8 1418.36,-152.8"/>
<text text-anchor="middle" x="1363" y="-130.6" font-family="Times,serif" font-size="14.00">DatabaseModule</text>
</g>
<!-- DatabaseModule&#45;&gt;ConnectionModule -->
<g id="edge18" class="edge">
<title>DatabaseModule&#45;&gt;ConnectionModule</title>
<path fill="none" stroke="black" d="M1327.99,-152.83C1327.99,-172.38 1327.99,-200.8 1327.99,-200.8 1327.99,-200.8 1191.14,-200.8 1191.14,-200.8"/>
<polygon fill="black" stroke="black" points="1191.14,-197.3 1181.14,-200.8 1191.14,-204.3 1191.14,-197.3"/>
</g>
<!-- DatabaseModule&#45;&gt;AppModule -->
<g id="edge3" class="edge">
<title>DatabaseModule&#45;&gt;AppModule</title>
<path fill="none" stroke="black" d="M1348.41,-152.93C1348.41,-152.93 1348.41,-323.57 1348.41,-323.57"/>
<polygon fill="black" stroke="black" points="1344.91,-323.57 1348.41,-333.57 1351.91,-323.57 1344.91,-323.57"/>
</g>
<!-- DatabaseService  -->
<g id="node19" class="node">
<title>DatabaseService </title>
<polygon fill="#fb8072" stroke="black" points="2286.28,-228.8 2173.72,-228.8 2173.72,-192.8 2286.28,-192.8 2286.28,-228.8"/>
<text text-anchor="middle" x="2230" y="-206.6" font-family="Times,serif" font-size="14.00">DatabaseService </text>
</g>
<!-- DatabaseModule&#45;&gt;DatabaseService  -->
<g id="edge23" class="edge">
<title>DatabaseModule&#45;&gt;DatabaseService </title>
<path fill="none" stroke="black" stroke-dasharray="5,2" d="M1418.55,-128.8C1609.91,-128.8 2230,-128.8 2230,-128.8 2230,-128.8 2230,-182.6 2230,-182.6"/>
<polygon fill="black" stroke="black" points="2226.5,-182.6 2230,-192.6 2233.5,-182.6 2226.5,-182.6"/>
</g>
<!-- ParameterizerModule&#45;&gt;AppModule -->
<g id="edge4" class="edge">
<title>ParameterizerModule&#45;&gt;AppModule</title>
<path fill="none" stroke="black" d="M1115,-304.83C1115,-321.2 1115,-342.8 1115,-342.8 1115,-342.8 1275.12,-342.8 1275.12,-342.8"/>
<polygon fill="black" stroke="black" points="1275.12,-346.3 1285.12,-342.8 1275.12,-339.3 1275.12,-346.3"/>
</g>
<!-- ProblemModule -->
<g id="node5" class="node">
<title>ProblemModule</title>
<polygon fill="#8dd3c7" stroke="black" points="1161.49,-152.8 1158.49,-156.8 1137.49,-156.8 1134.49,-152.8 1054.51,-152.8 1054.51,-116.8 1161.49,-116.8 1161.49,-152.8"/>
<text text-anchor="middle" x="1108" y="-130.6" font-family="Times,serif" font-size="14.00">ProblemModule</text>
</g>
<!-- ProblemModule&#45;&gt;ConnectionModule -->
<g id="edge19" class="edge">
<title>ProblemModule&#45;&gt;ConnectionModule</title>
<path fill="none" stroke="black" d="M1074.38,-152.81C1074.38,-152.81 1074.38,-182.65 1074.38,-182.65"/>
<polygon fill="black" stroke="black" points="1070.88,-182.65 1074.38,-192.65 1077.88,-182.65 1070.88,-182.65"/>
</g>
<!-- ProblemModule&#45;&gt;ParameterizerModule -->
<g id="edge26" class="edge">
<title>ProblemModule&#45;&gt;ParameterizerModule</title>
<path fill="none" stroke="black" d="M1054.21,-125.8C1051.84,-125.8 1050.43,-125.8 1050.43,-125.8 1050.43,-125.8 1050.43,-258.64 1050.43,-258.64"/>
<polygon fill="black" stroke="black" points="1046.93,-258.64 1050.43,-268.64 1053.93,-258.64 1046.93,-258.64"/>
</g>
<!-- ProblemModule&#45;&gt;SolverModule -->
<g id="edge33" class="edge">
<title>ProblemModule&#45;&gt;SolverModule</title>
<path fill="none" stroke="black" d="M1109.22,-153.08C1109.22,-168.75 1109.22,-188.8 1109.22,-188.8 1109.22,-188.8 1246,-188.8 1246,-188.8 1246,-188.8 1246,-258.37 1246,-258.37"/>
<polygon fill="black" stroke="black" points="1242.5,-258.37 1246,-268.37 1249.5,-258.37 1242.5,-258.37"/>
</g>
<!-- ProblemModule&#45;&gt;AppModule -->
<g id="edge5" class="edge">
<title>ProblemModule&#45;&gt;AppModule</title>
<path fill="none" stroke="black" d="M1126.65,-152.84C1126.65,-165.36 1126.65,-179.8 1126.65,-179.8 1126.65,-179.8 1301.86,-179.8 1301.86,-179.8 1301.86,-179.8 1301.86,-323.72 1301.86,-323.72"/>
<polygon fill="black" stroke="black" points="1298.36,-323.72 1301.86,-333.72 1305.36,-323.72 1298.36,-323.72"/>
</g>
<!-- ProblemService  -->
<g id="node22" class="node">
<title>ProblemService </title>
<polygon fill="#fb8072" stroke="black" points="2604.42,-228.8 2495.58,-228.8 2495.58,-192.8 2604.42,-192.8 2604.42,-228.8"/>
<text text-anchor="middle" x="2550" y="-206.6" font-family="Times,serif" font-size="14.00">ProblemService </text>
</g>
<!-- ProblemModule&#45;&gt;ProblemService  -->
<g id="edge28" class="edge">
<title>ProblemModule&#45;&gt;ProblemService </title>
<path fill="none" stroke="black" stroke-dasharray="5,2" d="M1144.07,-152.96C1144.07,-157.84 1144.07,-161.8 1144.07,-161.8 1144.07,-161.8 2550,-161.8 2550,-161.8 2550,-161.8 2550,-182.55 2550,-182.55"/>
<polygon fill="black" stroke="black" points="2546.5,-182.55 2550,-192.55 2553.5,-182.55 2546.5,-182.55"/>
</g>
<!-- SendgridModule -->
<g id="node6" class="node">
<title>SendgridModule</title>
<polygon fill="#8dd3c7" stroke="black" points="1290.1,-152.8 1287.1,-156.8 1266.1,-156.8 1263.1,-152.8 1179.9,-152.8 1179.9,-116.8 1290.1,-116.8 1290.1,-152.8"/>
<text text-anchor="middle" x="1235" y="-130.6" font-family="Times,serif" font-size="14.00">SendgridModule</text>
</g>
<!-- SendgridModule&#45;&gt;AuthModule -->
<g id="edge11" class="edge">
<title>SendgridModule&#45;&gt;AuthModule</title>
<path fill="none" stroke="black" d="M1195.84,-152.85C1195.84,-167.17 1195.84,-184.8 1195.84,-184.8 1195.84,-184.8 1002.69,-184.8 1002.69,-184.8 1002.69,-184.8 1002.69,-185.59 1002.69,-185.59"/>
<polygon fill="black" stroke="black" points="999.19,-182.74 1002.69,-192.74 1006.19,-182.74 999.19,-182.74"/>
</g>
<!-- SendgridModule&#45;&gt;AppModule -->
<g id="edge6" class="edge">
<title>SendgridModule&#45;&gt;AppModule</title>
<path fill="none" stroke="black" d="M1290.18,-134.8C1298.17,-134.8 1303.76,-134.8 1303.76,-134.8 1303.76,-134.8 1303.76,-323.67 1303.76,-323.67"/>
<polygon fill="black" stroke="black" points="1300.26,-323.67 1303.76,-333.67 1307.26,-323.67 1300.26,-323.67"/>
</g>
<!-- SendgridService  -->
<g id="node24" class="node">
<title>SendgridService </title>
<polygon fill="#fb8072" stroke="black" points="2756.03,-228.8 2643.97,-228.8 2643.97,-192.8 2756.03,-192.8 2756.03,-228.8"/>
<text text-anchor="middle" x="2700" y="-206.6" font-family="Times,serif" font-size="14.00">SendgridService </text>
</g>
<!-- SendgridModule&#45;&gt;SendgridService  -->
<g id="edge30" class="edge">
<title>SendgridModule&#45;&gt;SendgridService </title>
<path fill="none" stroke="black" stroke-dasharray="5,2" d="M1268.03,-152.92C1268.03,-155.77 1268.03,-157.8 1268.03,-157.8 1268.03,-157.8 2700,-157.8 2700,-157.8 2700,-157.8 2700,-182.56 2700,-182.56"/>
<polygon fill="black" stroke="black" points="2696.5,-182.56 2700,-192.56 2703.5,-182.56 2696.5,-182.56"/>
</g>
<!-- SolverModule&#45;&gt;AppModule -->
<g id="edge7" class="edge">
<title>SolverModule&#45;&gt;AppModule</title>
<path fill="none" stroke="black" d="M1291.61,-304.91C1291.61,-304.91 1291.61,-323.79 1291.61,-323.79"/>
<polygon fill="black" stroke="black" points="1288.11,-323.79 1291.61,-333.79 1295.11,-323.79 1288.11,-323.79"/>
</g>
<!-- UserModule -->
<g id="node8" class="node">
<title>UserModule</title>
<polygon fill="#8dd3c7" stroke="black" points="1036.99,-152.8 1033.99,-156.8 1012.99,-156.8 1009.99,-152.8 951.01,-152.8 951.01,-116.8 1036.99,-116.8 1036.99,-152.8"/>
<text text-anchor="middle" x="994" y="-130.6" font-family="Times,serif" font-size="14.00">UserModule</text>
</g>
<!-- UserModule&#45;&gt;AuthModule -->
<g id="edge12" class="edge">
<title>UserModule&#45;&gt;AuthModule</title>
<path fill="none" stroke="black" d="M968.38,-152.81C968.38,-152.81 968.38,-182.65 968.38,-182.65"/>
<polygon fill="black" stroke="black" points="964.88,-182.65 968.38,-192.65 971.88,-182.65 964.88,-182.65"/>
</g>
<!-- UserModule&#45;&gt;ConnectionModule -->
<g id="edge20" class="edge">
<title>UserModule&#45;&gt;ConnectionModule</title>
<path fill="none" stroke="black" d="M1037.02,-134.8C1041.51,-134.8 1044.47,-134.8 1044.47,-134.8 1044.47,-134.8 1044.47,-204.8 1044.47,-204.8 1044.47,-204.8 1046.77,-204.8 1046.77,-204.8"/>
<polygon fill="black" stroke="black" points="1046.77,-208.3 1056.77,-204.8 1046.77,-201.3 1046.77,-208.3"/>
</g>
<!-- UserModule&#45;&gt;AppModule -->
<g id="edge8" class="edge">
<title>UserModule&#45;&gt;AppModule</title>
<path fill="none" stroke="black" d="M1037.01,-143.8C1039.29,-143.8 1040.67,-143.8 1040.67,-143.8 1040.67,-143.8 1040.67,-351.8 1040.67,-351.8 1040.67,-351.8 1275.06,-351.8 1275.06,-351.8"/>
<polygon fill="black" stroke="black" points="1275.06,-355.3 1285.06,-351.8 1275.06,-348.3 1275.06,-355.3"/>
</g>
<!-- UsersService  -->
<g id="node26" class="node">
<title>UsersService </title>
<polygon fill="#fb8072" stroke="black" points="1959.86,-228.8 1866.14,-228.8 1866.14,-192.8 1959.86,-192.8 1959.86,-228.8"/>
<text text-anchor="middle" x="1913" y="-206.6" font-family="Times,serif" font-size="14.00">UsersService </text>
</g>
<!-- UserModule&#45;&gt;UsersService  -->
<g id="edge35" class="edge">
<title>UserModule&#45;&gt;UsersService </title>
<path fill="none" stroke="black" stroke-dasharray="5,2" d="M985.53,-153.22C985.53,-162.08 985.53,-170.8 985.53,-170.8 985.53,-170.8 1913,-170.8 1913,-170.8 1913,-170.8 1913,-182.67 1913,-182.67"/>
<polygon fill="black" stroke="black" points="1909.5,-182.67 1913,-192.67 1916.5,-182.67 1909.5,-182.67"/>
</g>
<!-- AppService -->
<g id="node10" class="node">
<title>AppService</title>
<ellipse fill="#fdb462" stroke="black" cx="1393" cy="-66.8" rx="56.75" ry="18"/>
<text text-anchor="middle" x="1393" y="-62.6" font-family="Times,serif" font-size="14.00">AppService</text>
</g>
<!-- AppService&#45;&gt;AppModule -->
<g id="edge9" class="edge">
<title>AppService&#45;&gt;AppModule</title>
<path fill="none" stroke="black" d="M1434.03,-79.41C1434.03,-134.57 1434.03,-351.8 1434.03,-351.8 1434.03,-351.8 1378.69,-351.8 1378.69,-351.8"/>
<polygon fill="black" stroke="black" points="1378.69,-348.3 1368.69,-351.8 1378.69,-355.3 1378.69,-348.3"/>
</g>
<!-- SendgridService -->
<g id="node11" class="node">
<title>SendgridService</title>
<ellipse fill="#fdb462" stroke="black" cx="1244" cy="-66.8" rx="74.73" ry="18"/>
<text text-anchor="middle" x="1244" y="-62.6" font-family="Times,serif" font-size="14.00">SendgridService</text>
</g>
<!-- SendgridService&#45;&gt;SendgridModule -->
<g id="edge31" class="edge">
<title>SendgridService&#45;&gt;SendgridModule</title>
<path fill="none" stroke="black" d="M1235,-85.02C1235,-85.02 1235,-106.53 1235,-106.53"/>
<polygon fill="black" stroke="black" points="1231.5,-106.53 1235,-116.53 1238.5,-106.53 1231.5,-106.53"/>
</g>
<!-- SendgridService&#45;&gt;AppModule -->
<g id="edge10" class="edge">
<title>SendgridService&#45;&gt;AppModule</title>
<path fill="none" stroke="black" d="M1305.67,-77.28C1305.67,-77.28 1305.67,-323.65 1305.67,-323.65"/>
<polygon fill="black" stroke="black" points="1302.17,-323.65 1305.67,-333.65 1309.17,-323.65 1302.17,-323.65"/>
</g>
<!-- AuthService -->
<g id="node12" class="node">
<title>AuthService</title>
<ellipse fill="#fdb462" stroke="black" cx="215" cy="-134.8" rx="59.11" ry="18"/>
<text text-anchor="middle" x="215" y="-130.6" font-family="Times,serif" font-size="14.00">AuthService</text>
</g>
<!-- AuthService&#45;&gt;AuthModule -->
<g id="edge13" class="edge">
<title>AuthService&#45;&gt;AuthModule</title>
<path fill="none" stroke="black" d="M215,-153C215,-177.16 215,-216.8 215,-216.8 215,-216.8 941.39,-216.8 941.39,-216.8"/>
<polygon fill="black" stroke="black" points="941.39,-220.3 951.39,-216.8 941.39,-213.3 941.39,-220.3"/>
</g>
<!-- JwtStrategy -->
<g id="node13" class="node">
<title>JwtStrategy</title>
<ellipse fill="#fdb462" stroke="black" cx="81" cy="-134.8" rx="56.77" ry="18"/>
<text text-anchor="middle" x="81" y="-130.6" font-family="Times,serif" font-size="14.00">JwtStrategy</text>
</g>
<!-- JwtStrategy&#45;&gt;AuthModule -->
<g id="edge14" class="edge">
<title>JwtStrategy&#45;&gt;AuthModule</title>
<path fill="none" stroke="black" d="M81,-153.03C81,-178.81 81,-222.8 81,-222.8 81,-222.8 941.22,-222.8 941.22,-222.8"/>
<polygon fill="black" stroke="black" points="941.22,-226.3 951.22,-222.8 941.22,-219.3 941.22,-226.3"/>
</g>
<!-- JwtStrategyRefreshToken -->
<g id="node14" class="node">
<title>JwtStrategyRefreshToken</title>
<ellipse fill="#fdb462" stroke="black" cx="800" cy="-134.8" rx="111.17" ry="18"/>
<text text-anchor="middle" x="800" y="-130.6" font-family="Times,serif" font-size="14.00">JwtStrategyRefreshToken</text>
</g>
<!-- JwtStrategyRefreshToken&#45;&gt;AuthModule -->
<g id="edge15" class="edge">
<title>JwtStrategyRefreshToken&#45;&gt;AuthModule</title>
<path fill="none" stroke="black" d="M848,-151.28C848,-170.24 848,-198.8 848,-198.8 848,-198.8 941.29,-198.8 941.29,-198.8"/>
<polygon fill="black" stroke="black" points="941.29,-202.3 951.29,-198.8 941.29,-195.3 941.29,-202.3"/>
</g>
<!-- JwtStrategyResetPassword -->
<g id="node15" class="node">
<title>JwtStrategyResetPassword</title>
<ellipse fill="#fdb462" stroke="black" cx="556" cy="-134.8" rx="115.22" ry="18"/>
<text text-anchor="middle" x="556" y="-130.6" font-family="Times,serif" font-size="14.00">JwtStrategyResetPassword</text>
</g>
<!-- JwtStrategyResetPassword&#45;&gt;AuthModule -->
<g id="edge16" class="edge">
<title>JwtStrategyResetPassword&#45;&gt;AuthModule</title>
<path fill="none" stroke="black" d="M631.3,-148.63C631.3,-169.03 631.3,-204.8 631.3,-204.8 631.3,-204.8 941.13,-204.8 941.13,-204.8"/>
<polygon fill="black" stroke="black" points="941.13,-208.3 951.13,-204.8 941.13,-201.3 941.13,-208.3"/>
</g>
<!-- LocalStrategy -->
<g id="node16" class="node">
<title>LocalStrategy</title>
<ellipse fill="#fdb462" stroke="black" cx="358" cy="-134.8" rx="65.4" ry="18"/>
<text text-anchor="middle" x="358" y="-130.6" font-family="Times,serif" font-size="14.00">LocalStrategy</text>
</g>
<!-- LocalStrategy&#45;&gt;AuthModule -->
<g id="edge17" class="edge">
<title>LocalStrategy&#45;&gt;AuthModule</title>
<path fill="none" stroke="black" d="M358,-152.81C358,-175.29 358,-210.8 358,-210.8 358,-210.8 941.22,-210.8 941.22,-210.8"/>
<polygon fill="black" stroke="black" points="941.22,-214.3 951.22,-210.8 941.22,-207.3 941.22,-214.3"/>
</g>
<!-- ConnectionService -->
<g id="node18" class="node">
<title>ConnectionService</title>
<ellipse fill="#fdb462" stroke="black" cx="676" cy="-286.8" rx="84.53" ry="18"/>
<text text-anchor="middle" x="676" y="-282.6" font-family="Times,serif" font-size="14.00">ConnectionService</text>
</g>
<!-- ConnectionService&#45;&gt;ConnectionModule -->
<g id="edge22" class="edge">
<title>ConnectionService&#45;&gt;ConnectionModule</title>
<path fill="none" stroke="black" d="M724.59,-271.78C724.59,-261.16 724.59,-248.8 724.59,-248.8 724.59,-248.8 1098.32,-248.8 1098.32,-248.8 1098.32,-248.8 1098.32,-238.91 1098.32,-238.91"/>
<polygon fill="black" stroke="black" points="1101.82,-238.91 1098.32,-228.91 1094.82,-238.91 1101.82,-238.91"/>
</g>
<!-- DatabaseService -->
<g id="node20" class="node">
<title>DatabaseService</title>
<ellipse fill="#fdb462" stroke="black" cx="2075" cy="-210.8" rx="75.26" ry="18"/>
<text text-anchor="middle" x="2075" y="-206.6" font-family="Times,serif" font-size="14.00">DatabaseService</text>
</g>
<!-- DatabaseService&#45;&gt;DatabaseModule -->
<g id="edge24" class="edge">
<title>DatabaseService&#45;&gt;DatabaseModule</title>
<path fill="none" stroke="black" d="M2075,-192.77C2075,-172.03 2075,-140.8 2075,-140.8 2075,-140.8 1428.57,-140.8 1428.57,-140.8"/>
<polygon fill="black" stroke="black" points="1428.57,-137.3 1418.57,-140.8 1428.57,-144.3 1428.57,-137.3"/>
</g>
<!-- ParameterizerService -->
<g id="node21" class="node">
<title>ParameterizerService</title>
<ellipse fill="#fdb462" stroke="black" cx="1584" cy="-210.8" rx="93.71" ry="18"/>
<text text-anchor="middle" x="1584" y="-206.6" font-family="Times,serif" font-size="14.00">ParameterizerService</text>
</g>
<!-- ParameterizerService&#45;&gt;ParameterizerModule -->
<g id="edge27" class="edge">
<title>ParameterizerService&#45;&gt;ParameterizerModule</title>
<path fill="none" stroke="black" d="M1491.56,-207.8C1375.03,-207.8 1189.74,-207.8 1189.74,-207.8 1189.74,-207.8 1189.74,-286.8 1189.74,-286.8 1189.74,-286.8 1189.16,-286.8 1189.16,-286.8"/>
<polygon fill="black" stroke="black" points="1193.88,-283.3 1183.88,-286.8 1193.88,-290.3 1193.88,-283.3"/>
</g>
<!-- ProblemService -->
<g id="node23" class="node">
<title>ProblemService</title>
<ellipse fill="#fdb462" stroke="black" cx="2399" cy="-210.8" rx="72.94" ry="18"/>
<text text-anchor="middle" x="2399" y="-206.6" font-family="Times,serif" font-size="14.00">ProblemService</text>
</g>
<!-- ProblemService&#45;&gt;ProblemModule -->
<g id="edge29" class="edge">
<title>ProblemService&#45;&gt;ProblemModule</title>
<path fill="none" stroke="black" d="M2399,-192.65C2399,-180.53 2399,-166.8 2399,-166.8 2399,-166.8 1091.8,-166.8 1091.8,-166.8 1091.8,-166.8 1091.8,-163.04 1091.8,-163.04"/>
<polygon fill="black" stroke="black" points="1095.3,-163.04 1091.8,-153.04 1088.3,-163.04 1095.3,-163.04"/>
</g>
<!-- SolverService -->
<g id="node25" class="node">
<title>SolverService</title>
<ellipse fill="#fdb462" stroke="black" cx="2861" cy="-210.8" rx="65.41" ry="18"/>
<text text-anchor="middle" x="2861" y="-206.6" font-family="Times,serif" font-size="14.00">SolverService</text>
</g>
<!-- SolverService&#45;&gt;SolverModule -->
<g id="edge34" class="edge">
<title>SolverService&#45;&gt;SolverModule</title>
<path fill="none" stroke="black" d="M2861,-228.81C2861,-251.29 2861,-286.8 2861,-286.8 2861,-286.8 1308.21,-286.8 1308.21,-286.8"/>
<polygon fill="black" stroke="black" points="1308.21,-283.3 1298.21,-286.8 1308.21,-290.3 1308.21,-283.3"/>
</g>
<!-- UsersService -->
<g id="node27" class="node">
<title>UsersService</title>
<ellipse fill="#fdb462" stroke="black" cx="1780" cy="-210.8" rx="61.97" ry="18"/>
<text text-anchor="middle" x="1780" y="-206.6" font-family="Times,serif" font-size="14.00">UsersService</text>
</g>
<!-- UsersService&#45;&gt;UserModule -->
<g id="edge36" class="edge">
<title>UsersService&#45;&gt;UserModule</title>
<path fill="none" stroke="black" d="M1780,-192.48C1780,-184.01 1780,-175.8 1780,-175.8 1780,-175.8 1019.84,-175.8 1019.84,-175.8 1019.84,-175.8 1019.84,-162.9 1019.84,-162.9"/>
<polygon fill="black" stroke="black" points="1023.34,-162.9 1019.84,-152.9 1016.34,-162.9 1023.34,-162.9"/>
</g>
</g>
</svg>
